<mxfile host="65bd71144e">
    <diagram id="rnrRETvfVvz3Ju71S818" name="Page-1">
        <mxGraphModel dx="5491" dy="4534" grid="0" gridSize="10" guides="1" tooltips="1" connect="1" arrows="1" fold="1" page="1" pageScale="1" pageWidth="827" pageHeight="1169" math="0" shadow="0">
            <root>
                <mxCell id="0"/>
                <mxCell id="1" parent="0"/>
                <mxCell id="1426" value="" style="whiteSpace=wrap;html=1;fillColor=#ffe6cc;strokeColor=#d79b00;" vertex="1" parent="1">
                    <mxGeometry x="231" y="-1595" width="232" height="136" as="geometry"/>
                </mxCell>
                <mxCell id="1418" value="" style="whiteSpace=wrap;html=1;strokeColor=#FF3333;strokeWidth=3;" parent="1" vertex="1">
                    <mxGeometry x="1707" y="-1291" width="695" height="1063" as="geometry"/>
                </mxCell>
                <mxCell id="1419" value="Admin" style="text;strokeColor=none;align=center;fillColor=none;html=1;verticalAlign=middle;whiteSpace=wrap;rounded=0;fontColor=#FF3333;fontSize=28;" parent="1" vertex="1">
                    <mxGeometry x="1703" y="-1371" width="135" height="43" as="geometry"/>
                </mxCell>
                <mxCell id="1416" value="" style="whiteSpace=wrap;html=1;strokeColor=#00CC00;strokeWidth=3;" parent="1" vertex="1">
                    <mxGeometry x="-44" y="-40.5" width="3462" height="905.5" as="geometry"/>
                </mxCell>
                <mxCell id="1417" value="Utilisateur" style="text;strokeColor=none;align=center;fillColor=none;html=1;verticalAlign=middle;whiteSpace=wrap;rounded=0;fontColor=#00FF00;fontSize=28;" parent="1" vertex="1">
                    <mxGeometry x="-48" y="-120.5" width="135" height="43" as="geometry"/>
                </mxCell>
                <mxCell id="1374" value="" style="whiteSpace=wrap;html=1;" parent="1" vertex="1">
                    <mxGeometry x="2117" y="-1248" width="192" height="533" as="geometry"/>
                </mxCell>
                <mxCell id="1253" value="" style="whiteSpace=wrap;html=1;strokeColor=#00CC00;strokeWidth=3;" parent="1" vertex="1">
                    <mxGeometry x="4" y="-1291" width="1368" height="1063" as="geometry"/>
                </mxCell>
                <mxCell id="2" value="" style="whiteSpace=wrap;html=1;" parent="1" vertex="1">
                    <mxGeometry x="40" y="40" width="480" height="240" as="geometry"/>
                </mxCell>
                <mxCell id="4" value="Home Page" style="text;strokeColor=none;align=left;fillColor=none;html=1;verticalAlign=middle;whiteSpace=wrap;rounded=0;" parent="1" vertex="1">
                    <mxGeometry x="40" y="20" width="120" height="10" as="geometry"/>
                </mxCell>
                <mxCell id="5" style="edgeStyle=none;html=1;exitX=1;exitY=0;exitDx=0;exitDy=0;endArrow=none;endFill=0;strokeColor=#B3B3B3;entryX=0;entryY=1;entryDx=0;entryDy=0;" parent="1" source="2" target="2" edge="1">
                    <mxGeometry relative="1" as="geometry">
                        <mxPoint x="630" y="60.00000000000006" as="sourcePoint"/>
                        <mxPoint x="630" y="189.23076923076928" as="targetPoint"/>
                    </mxGeometry>
                </mxCell>
                <mxCell id="6" style="edgeStyle=none;html=1;exitX=1;exitY=1;exitDx=0;exitDy=0;endArrow=none;endFill=0;strokeColor=#B3B3B3;entryX=0;entryY=0;entryDx=0;entryDy=0;" parent="1" source="2" target="2" edge="1">
                    <mxGeometry relative="1" as="geometry">
                        <mxPoint x="710" y="140" as="sourcePoint"/>
                        <mxPoint x="230" y="380" as="targetPoint"/>
                    </mxGeometry>
                </mxCell>
                <mxCell id="7" value="Image" style="text;strokeColor=none;align=center;fillColor=none;html=1;verticalAlign=middle;whiteSpace=wrap;rounded=0;fontColor=#999999;" parent="1" vertex="1">
                    <mxGeometry x="250" y="260" width="60" height="10" as="geometry"/>
                </mxCell>
                <mxCell id="8" value="" style="whiteSpace=wrap;html=1;" parent="1" vertex="1">
                    <mxGeometry x="40" y="40" width="480" height="30" as="geometry"/>
                </mxCell>
                <mxCell id="12" value="Logo" style="whiteSpace=wrap;html=1;fillColor=#eeeeee;strokeColor=#36393d;fontSize=9;" parent="1" vertex="1">
                    <mxGeometry x="50" y="45" width="50" height="20" as="geometry"/>
                </mxCell>
                <mxCell id="13" value="Accueil" style="whiteSpace=wrap;html=1;" parent="1" vertex="1">
                    <mxGeometry x="171" y="50" width="47" height="15" as="geometry"/>
                </mxCell>
                <mxCell id="16" value="Copyright" style="whiteSpace=wrap;html=1;fontSize=9;" parent="1" vertex="1">
                    <mxGeometry x="40" y="760" width="480" height="30" as="geometry"/>
                </mxCell>
                <mxCell id="19" value="Phrase accroche" style="text;strokeColor=none;align=center;fillColor=none;html=1;verticalAlign=middle;whiteSpace=wrap;rounded=0;fontSize=20;" parent="1" vertex="1">
                    <mxGeometry x="175" y="145" width="210" height="30" as="geometry"/>
                </mxCell>
                <mxCell id="43" value="" style="whiteSpace=wrap;html=1;" parent="1" vertex="1">
                    <mxGeometry x="700" y="40" width="480" height="681" as="geometry"/>
                </mxCell>
                <mxCell id="44" value="Catalogue" style="text;strokeColor=none;align=left;fillColor=none;html=1;verticalAlign=middle;whiteSpace=wrap;rounded=0;" parent="1" vertex="1">
                    <mxGeometry x="700" y="20" width="120" height="10" as="geometry"/>
                </mxCell>
                <mxCell id="48" value="" style="whiteSpace=wrap;html=1;" parent="1" vertex="1">
                    <mxGeometry x="700" y="40" width="480" height="30" as="geometry"/>
                </mxCell>
                <mxCell id="50" value="Logo" style="whiteSpace=wrap;html=1;fillColor=#eeeeee;strokeColor=#36393d;fontSize=9;" parent="1" vertex="1">
                    <mxGeometry x="710" y="45" width="50" height="20" as="geometry"/>
                </mxCell>
                <mxCell id="57" value="Nos arbres" style="text;strokeColor=none;align=left;fillColor=none;html=1;verticalAlign=middle;whiteSpace=wrap;rounded=0;fontSize=20;" parent="1" vertex="1">
                    <mxGeometry x="750" y="100" width="210" height="30" as="geometry"/>
                </mxCell>
                <mxCell id="81" value="filtrer par localisation" style="whiteSpace=wrap;html=1;align=left;" parent="1" vertex="1">
                    <mxGeometry x="753" y="140" width="121" height="15" as="geometry"/>
                </mxCell>
                <mxCell id="325" value="Page suivante" style="whiteSpace=wrap;html=1;fillColor=#eeeeee;strokeColor=#36393d;fontSize=9;" parent="1" vertex="1">
                    <mxGeometry x="1047" y="674" width="83" height="20" as="geometry"/>
                </mxCell>
                <mxCell id="326" value="" style="whiteSpace=wrap;html=1;" parent="1" vertex="1">
                    <mxGeometry x="1400" y="40" width="480" height="450" as="geometry"/>
                </mxCell>
                <mxCell id="327" value="Détail d&#39;un arbre" style="text;strokeColor=none;align=left;fillColor=none;html=1;verticalAlign=middle;whiteSpace=wrap;rounded=0;" parent="1" vertex="1">
                    <mxGeometry x="1400" y="20" width="120" height="10" as="geometry"/>
                </mxCell>
                <mxCell id="328" value="" style="whiteSpace=wrap;html=1;" parent="1" vertex="1">
                    <mxGeometry x="1400" y="40" width="480" height="30" as="geometry"/>
                </mxCell>
                <mxCell id="330" value="Logo" style="whiteSpace=wrap;html=1;fillColor=#eeeeee;strokeColor=#36393d;fontSize=9;" parent="1" vertex="1">
                    <mxGeometry x="1410" y="45" width="50" height="20" as="geometry"/>
                </mxCell>
                <mxCell id="333" value="Nom arbre" style="text;strokeColor=none;align=left;fillColor=none;html=1;verticalAlign=middle;whiteSpace=wrap;rounded=0;fontSize=16;" parent="1" vertex="1">
                    <mxGeometry x="1640" y="130" width="210" height="30" as="geometry"/>
                </mxCell>
                <mxCell id="341" value="" style="group" parent="1" vertex="1" connectable="0">
                    <mxGeometry x="1350" y="490" width="530" height="30" as="geometry"/>
                </mxCell>
                <mxCell id="342" value="Copyright" style="whiteSpace=wrap;html=1;fontSize=9;" parent="341" vertex="1">
                    <mxGeometry x="50" width="480" height="30" as="geometry"/>
                </mxCell>
                <mxCell id="375" value="panier" style="whiteSpace=wrap;html=1;" parent="1" vertex="1">
                    <mxGeometry x="470" y="50" width="40" height="15" as="geometry"/>
                </mxCell>
                <mxCell id="376" value="panier" style="whiteSpace=wrap;html=1;" parent="1" vertex="1">
                    <mxGeometry x="1130" y="50" width="40" height="15" as="geometry"/>
                </mxCell>
                <mxCell id="377" value="panier" style="whiteSpace=wrap;html=1;" parent="1" vertex="1">
                    <mxGeometry x="1830" y="50" width="40" height="15" as="geometry"/>
                </mxCell>
                <mxCell id="383" value="Localisation" style="text;strokeColor=none;align=left;fillColor=none;html=1;verticalAlign=middle;whiteSpace=wrap;rounded=0;fontSize=9;" parent="1" vertex="1">
                    <mxGeometry x="1640" y="161" width="210" height="10" as="geometry"/>
                </mxCell>
                <mxCell id="384" value="Description (historique de l&#39;espèce, hauteur, caractéristiques,...)" style="text;strokeColor=none;align=left;fillColor=none;html=1;verticalAlign=middle;whiteSpace=wrap;rounded=0;fontSize=9;" parent="1" vertex="1">
                    <mxGeometry x="1640" y="194" width="210" height="30" as="geometry"/>
                </mxCell>
                <mxCell id="385" value="Prix" style="text;strokeColor=none;align=left;fillColor=none;html=1;verticalAlign=middle;whiteSpace=wrap;rounded=0;fontSize=9;" parent="1" vertex="1">
                    <mxGeometry x="1642" y="230" width="36" height="10" as="geometry"/>
                </mxCell>
                <mxCell id="388" value="Ajouter au panier" style="whiteSpace=wrap;html=1;fillColor=#eeeeee;strokeColor=#36393d;fontSize=9;" parent="1" vertex="1">
                    <mxGeometry x="1713" y="251" width="83" height="20" as="geometry"/>
                </mxCell>
                <mxCell id="389" value="Forêt bidulle" style="text;strokeColor=none;align=left;fillColor=none;html=1;verticalAlign=middle;whiteSpace=wrap;rounded=0;fontSize=16;" parent="1" vertex="1">
                    <mxGeometry x="1460" y="320" width="210" height="20" as="geometry"/>
                </mxCell>
                <mxCell id="390" value="" style="whiteSpace=wrap;html=1;" parent="1" vertex="1">
                    <mxGeometry x="1680" y="320" width="140" height="130" as="geometry"/>
                </mxCell>
                <mxCell id="391" style="edgeStyle=none;html=1;exitX=1;exitY=1;exitDx=0;exitDy=0;endArrow=none;endFill=0;strokeColor=#B3B3B3;entryX=0;entryY=0;entryDx=0;entryDy=0;" parent="1" source="390" target="390" edge="1">
                    <mxGeometry relative="1" as="geometry">
                        <mxPoint x="2350" y="300" as="sourcePoint"/>
                        <mxPoint x="1870" y="540" as="targetPoint"/>
                    </mxGeometry>
                </mxCell>
                <mxCell id="392" value="Image" style="text;strokeColor=none;align=center;fillColor=none;html=1;verticalAlign=middle;whiteSpace=wrap;rounded=0;fontColor=#999999;" parent="1" vertex="1">
                    <mxGeometry x="1720" y="431" width="60" height="10" as="geometry"/>
                </mxCell>
                <mxCell id="393" style="edgeStyle=none;html=1;exitX=1;exitY=0;exitDx=0;exitDy=0;endArrow=none;endFill=0;strokeColor=#B3B3B3;entryX=0;entryY=1;entryDx=0;entryDy=0;" parent="1" edge="1">
                    <mxGeometry relative="1" as="geometry">
                        <mxPoint x="1820" y="320" as="sourcePoint"/>
                        <mxPoint x="1680" y="450" as="targetPoint"/>
                    </mxGeometry>
                </mxCell>
                <mxCell id="394" value="Description du projet" style="text;strokeColor=none;align=left;fillColor=none;html=1;verticalAlign=middle;whiteSpace=wrap;rounded=0;fontSize=9;" parent="1" vertex="1">
                    <mxGeometry x="1460" y="350" width="210" height="100" as="geometry"/>
                </mxCell>
                <mxCell id="395" value="compte" style="whiteSpace=wrap;html=1;" parent="1" vertex="1">
                    <mxGeometry x="420" y="50" width="40" height="15" as="geometry"/>
                </mxCell>
                <mxCell id="397" value="compte" style="whiteSpace=wrap;html=1;" parent="1" vertex="1">
                    <mxGeometry x="1080" y="50" width="40" height="15" as="geometry"/>
                </mxCell>
                <mxCell id="398" value="compte" style="whiteSpace=wrap;html=1;" parent="1" vertex="1">
                    <mxGeometry x="1780" y="50" width="40" height="15" as="geometry"/>
                </mxCell>
                <mxCell id="426" value="" style="whiteSpace=wrap;html=1;" parent="1" vertex="1">
                    <mxGeometry x="2140" y="70" width="480" height="450" as="geometry"/>
                </mxCell>
                <mxCell id="427" value="Panier" style="text;strokeColor=none;align=left;fillColor=none;html=1;verticalAlign=middle;whiteSpace=wrap;rounded=0;" parent="1" vertex="1">
                    <mxGeometry x="2140" y="20" width="120" height="10" as="geometry"/>
                </mxCell>
                <mxCell id="428" value="" style="whiteSpace=wrap;html=1;" parent="1" vertex="1">
                    <mxGeometry x="2140" y="40" width="480" height="30" as="geometry"/>
                </mxCell>
                <mxCell id="430" value="Logo" style="whiteSpace=wrap;html=1;fillColor=#eeeeee;strokeColor=#36393d;fontSize=9;" parent="1" vertex="1">
                    <mxGeometry x="2150" y="45" width="50" height="20" as="geometry"/>
                </mxCell>
                <mxCell id="431" value="nav" style="whiteSpace=wrap;html=1;" parent="1" vertex="1">
                    <mxGeometry x="2350" y="50" width="160" height="15" as="geometry"/>
                </mxCell>
                <mxCell id="437" value="panier" style="whiteSpace=wrap;html=1;" parent="1" vertex="1">
                    <mxGeometry x="2570" y="50" width="40" height="15" as="geometry"/>
                </mxCell>
                <mxCell id="452" value="compte" style="whiteSpace=wrap;html=1;" parent="1" vertex="1">
                    <mxGeometry x="2520" y="50" width="40" height="15" as="geometry"/>
                </mxCell>
                <mxCell id="455" value="Nom arbre" style="text;strokeColor=none;align=left;fillColor=none;html=1;verticalAlign=middle;whiteSpace=wrap;rounded=0;fontSize=9;" parent="1" vertex="1">
                    <mxGeometry x="2280" y="190" width="50" height="20" as="geometry"/>
                </mxCell>
                <mxCell id="456" value="Panier" style="text;strokeColor=none;align=left;fillColor=none;html=1;verticalAlign=middle;whiteSpace=wrap;rounded=0;fontSize=16;" parent="1" vertex="1">
                    <mxGeometry x="2190" y="100" width="210" height="30" as="geometry"/>
                </mxCell>
                <mxCell id="458" value="" style="group" parent="1" vertex="1" connectable="0">
                    <mxGeometry x="2190" y="190" width="80" height="70" as="geometry"/>
                </mxCell>
                <mxCell id="438" value="" style="whiteSpace=wrap;html=1;" parent="458" vertex="1">
                    <mxGeometry width="80" height="70" as="geometry"/>
                </mxCell>
                <mxCell id="439" style="edgeStyle=none;html=1;exitX=1;exitY=0;exitDx=0;exitDy=0;endArrow=none;endFill=0;strokeColor=#B3B3B3;entryX=0;entryY=1;entryDx=0;entryDy=0;" parent="458" edge="1">
                    <mxGeometry relative="1" as="geometry">
                        <mxPoint x="80" as="sourcePoint"/>
                        <mxPoint y="70" as="targetPoint"/>
                    </mxGeometry>
                </mxCell>
                <mxCell id="440" style="edgeStyle=none;html=1;exitX=1;exitY=1;exitDx=0;exitDy=0;endArrow=none;endFill=0;strokeColor=#B3B3B3;entryX=0;entryY=0;entryDx=0;entryDy=0;" parent="458" edge="1">
                    <mxGeometry relative="1" as="geometry">
                        <mxPoint x="80" y="70" as="sourcePoint"/>
                        <mxPoint as="targetPoint"/>
                    </mxGeometry>
                </mxCell>
                <mxCell id="441" value="Image" style="text;strokeColor=none;align=center;fillColor=none;html=1;verticalAlign=middle;whiteSpace=wrap;rounded=0;fontColor=#999999;" parent="458" vertex="1">
                    <mxGeometry x="16" y="54.44444444444444" width="48" height="7.777777777777778" as="geometry"/>
                </mxCell>
                <mxCell id="459" value="Produit" style="text;strokeColor=none;align=left;fillColor=none;html=1;verticalAlign=middle;whiteSpace=wrap;rounded=0;fontSize=12;" parent="1" vertex="1">
                    <mxGeometry x="2190" y="150" width="210" height="20" as="geometry"/>
                </mxCell>
                <mxCell id="460" value="Quantité" style="text;strokeColor=none;align=left;fillColor=none;html=1;verticalAlign=middle;whiteSpace=wrap;rounded=0;fontSize=12;" parent="1" vertex="1">
                    <mxGeometry x="2380" y="150" width="70" height="20" as="geometry"/>
                </mxCell>
                <mxCell id="461" value="Prix" style="text;strokeColor=none;align=left;fillColor=none;html=1;verticalAlign=middle;whiteSpace=wrap;rounded=0;fontSize=12;" parent="1" vertex="1">
                    <mxGeometry x="2520" y="150" width="70" height="20" as="geometry"/>
                </mxCell>
                <mxCell id="462" value="- 1 +" style="text;strokeColor=none;align=left;fillColor=none;html=1;verticalAlign=middle;whiteSpace=wrap;rounded=0;fontSize=9;" parent="1" vertex="1">
                    <mxGeometry x="2380" y="190" width="40" height="20" as="geometry"/>
                </mxCell>
                <mxCell id="463" value="€ 100,00 EUR" style="text;strokeColor=none;align=left;fillColor=none;html=1;verticalAlign=middle;whiteSpace=wrap;rounded=0;fontSize=9;" parent="1" vertex="1">
                    <mxGeometry x="2520" y="190" width="60" height="20" as="geometry"/>
                </mxCell>
                <mxCell id="464" value="supp." style="whiteSpace=wrap;html=1;fillColor=#eeeeee;strokeColor=#36393d;fontSize=9;" parent="1" vertex="1">
                    <mxGeometry x="2420" y="190" width="40" height="20" as="geometry"/>
                </mxCell>
                <mxCell id="465" style="edgeStyle=none;html=1;exitX=1;exitY=1;exitDx=0;exitDy=0;endArrow=none;endFill=0;strokeColor=#B3B3B3;entryX=0;entryY=1;entryDx=0;entryDy=0;" parent="1" edge="1">
                    <mxGeometry relative="1" as="geometry">
                        <mxPoint x="2590" y="174.6" as="sourcePoint"/>
                        <mxPoint x="2190" y="174.6" as="targetPoint"/>
                    </mxGeometry>
                </mxCell>
                <mxCell id="466" value="Nom arbre" style="text;strokeColor=none;align=left;fillColor=none;html=1;verticalAlign=middle;whiteSpace=wrap;rounded=0;fontSize=9;" parent="1" vertex="1">
                    <mxGeometry x="2280" y="300" width="50" height="20" as="geometry"/>
                </mxCell>
                <mxCell id="467" value="" style="group" parent="1" vertex="1" connectable="0">
                    <mxGeometry x="2190" y="300" width="80" height="70" as="geometry"/>
                </mxCell>
                <mxCell id="468" value="" style="whiteSpace=wrap;html=1;" parent="467" vertex="1">
                    <mxGeometry width="80" height="70" as="geometry"/>
                </mxCell>
                <mxCell id="469" style="edgeStyle=none;html=1;exitX=1;exitY=0;exitDx=0;exitDy=0;endArrow=none;endFill=0;strokeColor=#B3B3B3;entryX=0;entryY=1;entryDx=0;entryDy=0;" parent="467" edge="1">
                    <mxGeometry relative="1" as="geometry">
                        <mxPoint x="80" as="sourcePoint"/>
                        <mxPoint y="70" as="targetPoint"/>
                    </mxGeometry>
                </mxCell>
                <mxCell id="470" style="edgeStyle=none;html=1;exitX=1;exitY=1;exitDx=0;exitDy=0;endArrow=none;endFill=0;strokeColor=#B3B3B3;entryX=0;entryY=0;entryDx=0;entryDy=0;" parent="467" edge="1">
                    <mxGeometry relative="1" as="geometry">
                        <mxPoint x="80" y="70" as="sourcePoint"/>
                        <mxPoint as="targetPoint"/>
                    </mxGeometry>
                </mxCell>
                <mxCell id="471" value="Image" style="text;strokeColor=none;align=center;fillColor=none;html=1;verticalAlign=middle;whiteSpace=wrap;rounded=0;fontColor=#999999;" parent="467" vertex="1">
                    <mxGeometry x="16" y="54.44444444444444" width="48" height="7.777777777777778" as="geometry"/>
                </mxCell>
                <mxCell id="472" value="- 1 +" style="text;strokeColor=none;align=left;fillColor=none;html=1;verticalAlign=middle;whiteSpace=wrap;rounded=0;fontSize=9;" parent="1" vertex="1">
                    <mxGeometry x="2380" y="300" width="40" height="20" as="geometry"/>
                </mxCell>
                <mxCell id="473" value="€ 150,00 EUR" style="text;strokeColor=none;align=left;fillColor=none;html=1;verticalAlign=middle;whiteSpace=wrap;rounded=0;fontSize=9;" parent="1" vertex="1">
                    <mxGeometry x="2520" y="300" width="60" height="20" as="geometry"/>
                </mxCell>
                <mxCell id="474" value="supp." style="whiteSpace=wrap;html=1;fillColor=#eeeeee;strokeColor=#36393d;fontSize=9;" parent="1" vertex="1">
                    <mxGeometry x="2420" y="300" width="40" height="20" as="geometry"/>
                </mxCell>
                <mxCell id="475" style="edgeStyle=none;html=1;exitX=1;exitY=1;exitDx=0;exitDy=0;endArrow=none;endFill=0;strokeColor=#B3B3B3;entryX=0;entryY=1;entryDx=0;entryDy=0;" parent="1" edge="1">
                    <mxGeometry relative="1" as="geometry">
                        <mxPoint x="2590" y="280.65999999999997" as="sourcePoint"/>
                        <mxPoint x="2190" y="280.65999999999997" as="targetPoint"/>
                    </mxGeometry>
                </mxCell>
                <mxCell id="476" style="edgeStyle=none;html=1;exitX=1;exitY=1;exitDx=0;exitDy=0;endArrow=none;endFill=0;strokeColor=#B3B3B3;entryX=0;entryY=1;entryDx=0;entryDy=0;" parent="1" edge="1">
                    <mxGeometry relative="1" as="geometry">
                        <mxPoint x="2590" y="394.65999999999997" as="sourcePoint"/>
                        <mxPoint x="2190" y="394.65999999999997" as="targetPoint"/>
                    </mxGeometry>
                </mxCell>
                <mxCell id="477" value="€ 250,00 EUR" style="text;strokeColor=none;align=left;fillColor=none;html=1;verticalAlign=middle;whiteSpace=wrap;rounded=0;fontSize=12;" parent="1" vertex="1">
                    <mxGeometry x="2500" y="410" width="85" height="20" as="geometry"/>
                </mxCell>
                <mxCell id="478" value="Valider le panier" style="whiteSpace=wrap;html=1;fillColor=#eeeeee;strokeColor=#36393d;fontSize=9;" parent="1" vertex="1">
                    <mxGeometry x="2502" y="441" width="83" height="20" as="geometry"/>
                </mxCell>
                <mxCell id="479" value="TOTAL" style="text;strokeColor=none;align=right;fillColor=none;html=1;verticalAlign=middle;whiteSpace=wrap;rounded=0;fontSize=12;" parent="1" vertex="1">
                    <mxGeometry x="2400" y="411" width="60" height="20" as="geometry"/>
                </mxCell>
                <mxCell id="481" value="Continuer mes achats" style="text;strokeColor=none;align=right;fillColor=none;html=1;verticalAlign=middle;whiteSpace=wrap;rounded=0;fontStyle=4;fontSize=9;" parent="1" vertex="1">
                    <mxGeometry x="2490" y="100" width="100" height="30" as="geometry"/>
                </mxCell>
                <mxCell id="483" value="" style="whiteSpace=wrap;html=1;" parent="1" vertex="1">
                    <mxGeometry x="690" y="960" width="480" height="709" as="geometry"/>
                </mxCell>
                <mxCell id="484" value="Admin" style="text;strokeColor=none;align=left;fillColor=none;html=1;verticalAlign=middle;whiteSpace=wrap;rounded=0;" parent="1" vertex="1">
                    <mxGeometry x="690" y="940" width="120" height="10" as="geometry"/>
                </mxCell>
                <mxCell id="485" value="" style="whiteSpace=wrap;html=1;" parent="1" vertex="1">
                    <mxGeometry x="690" y="960" width="480" height="30" as="geometry"/>
                </mxCell>
                <mxCell id="487" value="Logo" style="whiteSpace=wrap;html=1;fillColor=#eeeeee;strokeColor=#36393d;fontSize=9;" parent="1" vertex="1">
                    <mxGeometry x="700" y="965" width="50" height="20" as="geometry"/>
                </mxCell>
                <mxCell id="490" value="Gestion GreenRoots" style="text;strokeColor=none;align=left;fillColor=none;html=1;verticalAlign=middle;whiteSpace=wrap;rounded=0;fontSize=20;" parent="1" vertex="1">
                    <mxGeometry x="740" y="1020" width="210" height="30" as="geometry"/>
                </mxCell>
                <mxCell id="491" value="filtrer par localisation" style="whiteSpace=wrap;html=1;align=left;" parent="1" vertex="1">
                    <mxGeometry x="743" y="1090" width="116" height="15" as="geometry"/>
                </mxCell>
                <mxCell id="498" value="" style="group" parent="1" vertex="1" connectable="0">
                    <mxGeometry x="640" y="1668" width="530" height="30" as="geometry"/>
                </mxCell>
                <mxCell id="499" value="Copyright" style="whiteSpace=wrap;html=1;fontSize=9;" parent="498" vertex="1">
                    <mxGeometry x="50" width="480" height="30" as="geometry"/>
                </mxCell>
                <mxCell id="531" value="Page suivante" style="whiteSpace=wrap;html=1;fillColor=#eeeeee;strokeColor=#36393d;fontSize=9;" parent="1" vertex="1">
                    <mxGeometry x="1037" y="1625" width="83" height="20" as="geometry"/>
                </mxCell>
                <mxCell id="532" value="panier" style="whiteSpace=wrap;html=1;" parent="1" vertex="1">
                    <mxGeometry x="1120" y="970" width="40" height="15" as="geometry"/>
                </mxCell>
                <mxCell id="533" value="compte" style="whiteSpace=wrap;html=1;" parent="1" vertex="1">
                    <mxGeometry x="1070" y="970" width="40" height="15" as="geometry"/>
                </mxCell>
                <mxCell id="534" value="Ajouter un arbre" style="whiteSpace=wrap;html=1;fillColor=#eeeeee;strokeColor=#36393d;fontSize=9;" parent="1" vertex="1">
                    <mxGeometry x="833" y="1060" width="80" height="20" as="geometry"/>
                </mxCell>
                <mxCell id="535" value="Créer un projet" style="whiteSpace=wrap;html=1;fillColor=#eeeeee;strokeColor=#36393d;fontSize=9;" parent="1" vertex="1">
                    <mxGeometry x="743" y="1060" width="80" height="20" as="geometry"/>
                </mxCell>
                <mxCell id="589" value="" style="whiteSpace=wrap;html=1;" parent="1" vertex="1">
                    <mxGeometry x="1440" y="960" width="480" height="580" as="geometry"/>
                </mxCell>
                <mxCell id="590" value="Admin - ajouter / modifier un arbre" style="text;strokeColor=none;align=left;fillColor=none;html=1;verticalAlign=middle;whiteSpace=wrap;rounded=0;" parent="1" vertex="1">
                    <mxGeometry x="1440" y="940" width="200" height="10" as="geometry"/>
                </mxCell>
                <mxCell id="591" value="" style="whiteSpace=wrap;html=1;" parent="1" vertex="1">
                    <mxGeometry x="1440" y="960" width="480" height="30" as="geometry"/>
                </mxCell>
                <mxCell id="593" value="Logo" style="whiteSpace=wrap;html=1;fillColor=#eeeeee;strokeColor=#36393d;fontSize=9;" parent="1" vertex="1">
                    <mxGeometry x="1450" y="965" width="50" height="20" as="geometry"/>
                </mxCell>
                <mxCell id="596" value="Ajouter / modifier un arbre" style="text;strokeColor=none;align=left;fillColor=none;html=1;verticalAlign=middle;whiteSpace=wrap;rounded=0;fontSize=20;" parent="1" vertex="1">
                    <mxGeometry x="1490" y="1020" width="390" height="30" as="geometry"/>
                </mxCell>
                <mxCell id="607" value="" style="group" parent="1" vertex="1" connectable="0">
                    <mxGeometry x="1390" y="1540" width="530" height="30" as="geometry"/>
                </mxCell>
                <mxCell id="608" value="Copyright" style="whiteSpace=wrap;html=1;fontSize=9;" parent="607" vertex="1">
                    <mxGeometry x="50" width="480" height="30" as="geometry"/>
                </mxCell>
                <mxCell id="611" value="panier" style="whiteSpace=wrap;html=1;" parent="1" vertex="1">
                    <mxGeometry x="1870" y="970" width="40" height="15" as="geometry"/>
                </mxCell>
                <mxCell id="612" value="compte" style="whiteSpace=wrap;html=1;" parent="1" vertex="1">
                    <mxGeometry x="1820" y="970" width="40" height="15" as="geometry"/>
                </mxCell>
                <mxCell id="599" value="" style="group;rotation=90;" parent="1" vertex="1" connectable="0">
                    <mxGeometry x="1490" y="1080" width="131.76" height="160" as="geometry"/>
                </mxCell>
                <mxCell id="600" value="" style="whiteSpace=wrap;html=1;" parent="599" vertex="1">
                    <mxGeometry width="131.76" height="140" as="geometry"/>
                </mxCell>
                <mxCell id="601" style="edgeStyle=none;html=1;exitX=1;exitY=0;exitDx=0;exitDy=0;endArrow=none;endFill=0;strokeColor=#B3B3B3;entryX=0;entryY=1;entryDx=0;entryDy=0;" parent="599" source="600" target="600" edge="1">
                    <mxGeometry relative="1" as="geometry">
                        <mxPoint x="590" y="-99.99999999999994" as="sourcePoint"/>
                        <mxPoint x="590" y="29.230769230769283" as="targetPoint"/>
                    </mxGeometry>
                </mxCell>
                <mxCell id="602" style="edgeStyle=none;html=1;exitX=1;exitY=1;exitDx=0;exitDy=0;endArrow=none;endFill=0;strokeColor=#B3B3B3;entryX=0;entryY=0;entryDx=0;entryDy=0;" parent="599" source="600" target="600" edge="1">
                    <mxGeometry relative="1" as="geometry">
                        <mxPoint x="670" y="-20" as="sourcePoint"/>
                        <mxPoint x="190" y="220" as="targetPoint"/>
                    </mxGeometry>
                </mxCell>
                <mxCell id="603" value="Image" style="text;strokeColor=none;align=center;fillColor=none;html=1;verticalAlign=middle;whiteSpace=wrap;rounded=0;fontColor=#999999;" parent="599" vertex="1">
                    <mxGeometry x="35.879999999999995" y="120" width="60" height="10" as="geometry"/>
                </mxCell>
                <mxCell id="656" value="Choisir une image..." style="whiteSpace=wrap;html=1;fillColor=#eeeeee;strokeColor=#36393d;fontSize=9;" parent="599" vertex="1">
                    <mxGeometry x="25.88" y="60" width="84.12" height="20" as="geometry"/>
                </mxCell>
                <mxCell id="657" value="Nom arbre" style="text;strokeColor=none;align=left;fillColor=none;html=1;verticalAlign=middle;whiteSpace=wrap;rounded=0;fontSize=9;" parent="1" vertex="1">
                    <mxGeometry x="1680" y="1080" width="50" height="20" as="geometry"/>
                </mxCell>
                <mxCell id="658" value="" style="whiteSpace=wrap;html=1;" parent="1" vertex="1">
                    <mxGeometry x="1680" y="1100" width="200" height="20" as="geometry"/>
                </mxCell>
                <mxCell id="660" value="Sélectionner une localisation" style="whiteSpace=wrap;html=1;align=left;fontSize=9;" parent="1" vertex="1">
                    <mxGeometry x="1680" y="1140" width="200" height="20" as="geometry"/>
                </mxCell>
                <mxCell id="661" value="Sélectionner un projet" style="whiteSpace=wrap;html=1;align=left;fontSize=9;" parent="1" vertex="1">
                    <mxGeometry x="1680" y="1180" width="200" height="20" as="geometry"/>
                </mxCell>
                <mxCell id="662" value="Prix" style="text;strokeColor=none;align=left;fillColor=none;html=1;verticalAlign=middle;whiteSpace=wrap;rounded=0;fontSize=9;" parent="1" vertex="1">
                    <mxGeometry x="1680" y="1200" width="50" height="20" as="geometry"/>
                </mxCell>
                <mxCell id="663" value="" style="whiteSpace=wrap;html=1;" parent="1" vertex="1">
                    <mxGeometry x="1680" y="1220" width="200" height="20" as="geometry"/>
                </mxCell>
                <mxCell id="664" value="Sauvegarder" style="whiteSpace=wrap;html=1;fillColor=#eeeeee;strokeColor=#36393d;fontSize=9;" parent="1" vertex="1">
                    <mxGeometry x="1800" y="1265.5" width="80" height="20" as="geometry"/>
                </mxCell>
                <mxCell id="665" value="" style="whiteSpace=wrap;html=1;" parent="1" vertex="1">
                    <mxGeometry x="2830" y="40" width="480" height="430" as="geometry"/>
                </mxCell>
                <mxCell id="666" value="About" style="text;strokeColor=none;align=left;fillColor=none;html=1;verticalAlign=middle;whiteSpace=wrap;rounded=0;" parent="1" vertex="1">
                    <mxGeometry x="2830" y="20" width="120" height="10" as="geometry"/>
                </mxCell>
                <mxCell id="670" value="" style="whiteSpace=wrap;html=1;" parent="1" vertex="1">
                    <mxGeometry x="2830" y="40" width="480" height="30" as="geometry"/>
                </mxCell>
                <mxCell id="672" value="Logo" style="whiteSpace=wrap;html=1;fillColor=#eeeeee;strokeColor=#36393d;fontSize=9;" parent="1" vertex="1">
                    <mxGeometry x="2840" y="45" width="50" height="20" as="geometry"/>
                </mxCell>
                <mxCell id="673" value="nav" style="whiteSpace=wrap;html=1;" parent="1" vertex="1">
                    <mxGeometry x="3040" y="50" width="160" height="15" as="geometry"/>
                </mxCell>
                <mxCell id="676" value="Copyright" style="whiteSpace=wrap;html=1;fontSize=9;" parent="1" vertex="1">
                    <mxGeometry x="2830" y="580" width="480" height="30" as="geometry"/>
                </mxCell>
                <mxCell id="684" value="Nos actions" style="text;strokeColor=none;align=left;fillColor=none;html=1;verticalAlign=middle;whiteSpace=wrap;rounded=0;fontSize=16;" parent="1" vertex="1">
                    <mxGeometry x="2880" y="105" width="210" height="20" as="geometry"/>
                </mxCell>
                <mxCell id="702" value="panier" style="whiteSpace=wrap;html=1;" parent="1" vertex="1">
                    <mxGeometry x="3260" y="50" width="40" height="15" as="geometry"/>
                </mxCell>
                <mxCell id="703" value="compte" style="whiteSpace=wrap;html=1;" parent="1" vertex="1">
                    <mxGeometry x="3210" y="50" width="40" height="15" as="geometry"/>
                </mxCell>
                <mxCell id="706" value="" style="edgeStyle=none;orthogonalLoop=1;jettySize=auto;html=1;strokeColor=#009900;strokeWidth=3;" parent="1" edge="1">
                    <mxGeometry width="100" relative="1" as="geometry">
                        <mxPoint x="540" y="420" as="sourcePoint"/>
                        <mxPoint x="680" y="380" as="targetPoint"/>
                        <Array as="points"/>
                    </mxGeometry>
                </mxCell>
                <mxCell id="707" value="" style="edgeStyle=none;orthogonalLoop=1;jettySize=auto;html=1;strokeColor=#009900;strokeWidth=3;" parent="1" edge="1">
                    <mxGeometry width="100" relative="1" as="geometry">
                        <mxPoint x="1190" y="410" as="sourcePoint"/>
                        <mxPoint x="1370" y="400" as="targetPoint"/>
                        <Array as="points"/>
                    </mxGeometry>
                </mxCell>
                <mxCell id="709" value="" style="edgeStyle=none;orthogonalLoop=1;jettySize=auto;html=1;strokeColor=#009900;exitX=1;exitY=0.5;exitDx=0;exitDy=0;strokeWidth=3;" parent="1" source="326" edge="1">
                    <mxGeometry width="100" relative="1" as="geometry">
                        <mxPoint x="1890" y="236" as="sourcePoint"/>
                        <mxPoint x="2130" y="250" as="targetPoint"/>
                        <Array as="points"/>
                    </mxGeometry>
                </mxCell>
                <mxCell id="710" value="" style="edgeStyle=none;orthogonalLoop=1;jettySize=auto;html=1;strokeColor=#009900;strokeWidth=3;" parent="1" edge="1">
                    <mxGeometry width="100" relative="1" as="geometry">
                        <mxPoint x="1190" y="1250" as="sourcePoint"/>
                        <mxPoint x="1420" y="1210" as="targetPoint"/>
                        <Array as="points"/>
                    </mxGeometry>
                </mxCell>
                <mxCell id="714" value="" style="whiteSpace=wrap;html=1;" parent="1" vertex="1">
                    <mxGeometry x="2830" y="460" width="480" height="120" as="geometry"/>
                </mxCell>
                <mxCell id="713" value="Nous contacter" style="text;strokeColor=none;align=left;fillColor=none;html=1;verticalAlign=middle;whiteSpace=wrap;rounded=0;fontSize=16;" parent="1" vertex="1">
                    <mxGeometry x="2880" y="470" width="210" height="20" as="geometry"/>
                </mxCell>
                <mxCell id="716" value="" style="group" parent="1" vertex="1" connectable="0">
                    <mxGeometry x="2880" y="140" width="380" height="120" as="geometry"/>
                </mxCell>
                <mxCell id="680" value="" style="whiteSpace=wrap;html=1;" parent="716" vertex="1">
                    <mxGeometry width="120" height="120" as="geometry"/>
                </mxCell>
                <mxCell id="681" style="edgeStyle=none;html=1;exitX=1;exitY=0;exitDx=0;exitDy=0;endArrow=none;endFill=0;strokeColor=#B3B3B3;entryX=0;entryY=1;entryDx=0;entryDy=0;" parent="716" source="680" target="680" edge="1">
                    <mxGeometry relative="1" as="geometry">
                        <mxPoint x="590" y="-99.99999999999994" as="sourcePoint"/>
                        <mxPoint x="590" y="29.230769230769283" as="targetPoint"/>
                    </mxGeometry>
                </mxCell>
                <mxCell id="682" style="edgeStyle=none;html=1;exitX=1;exitY=1;exitDx=0;exitDy=0;endArrow=none;endFill=0;strokeColor=#B3B3B3;entryX=0;entryY=0;entryDx=0;entryDy=0;" parent="716" source="680" target="680" edge="1">
                    <mxGeometry relative="1" as="geometry">
                        <mxPoint x="670" y="-20" as="sourcePoint"/>
                        <mxPoint x="190" y="220" as="targetPoint"/>
                    </mxGeometry>
                </mxCell>
                <mxCell id="683" value="Image" style="text;strokeColor=none;align=center;fillColor=none;html=1;verticalAlign=middle;whiteSpace=wrap;rounded=0;fontColor=#999999;" parent="716" vertex="1">
                    <mxGeometry x="30" y="100" width="60" height="10" as="geometry"/>
                </mxCell>
                <mxCell id="685" value="Texte" style="whiteSpace=wrap;html=1;fontSize=12;" parent="716" vertex="1">
                    <mxGeometry x="170" y="1" width="210" height="119" as="geometry"/>
                </mxCell>
                <mxCell id="717" value="Nos équipes" style="text;strokeColor=none;align=left;fillColor=none;html=1;verticalAlign=middle;whiteSpace=wrap;rounded=0;fontSize=16;" parent="1" vertex="1">
                    <mxGeometry x="2880" y="280" width="210" height="20" as="geometry"/>
                </mxCell>
                <mxCell id="723" value="Texte" style="whiteSpace=wrap;html=1;fontSize=12;" parent="1" vertex="1">
                    <mxGeometry x="2880" y="316" width="210" height="119" as="geometry"/>
                </mxCell>
                <mxCell id="724" value="" style="group" parent="1" vertex="1" connectable="0">
                    <mxGeometry x="3140" y="315" width="120" height="120" as="geometry"/>
                </mxCell>
                <mxCell id="719" value="" style="whiteSpace=wrap;html=1;" parent="724" vertex="1">
                    <mxGeometry width="120" height="120" as="geometry"/>
                </mxCell>
                <mxCell id="720" style="edgeStyle=none;html=1;exitX=1;exitY=0;exitDx=0;exitDy=0;endArrow=none;endFill=0;strokeColor=#B3B3B3;entryX=0;entryY=1;entryDx=0;entryDy=0;" parent="724" source="719" target="719" edge="1">
                    <mxGeometry relative="1" as="geometry">
                        <mxPoint x="590" y="-99.99999999999994" as="sourcePoint"/>
                        <mxPoint x="590" y="29.230769230769283" as="targetPoint"/>
                    </mxGeometry>
                </mxCell>
                <mxCell id="721" style="edgeStyle=none;html=1;exitX=1;exitY=1;exitDx=0;exitDy=0;endArrow=none;endFill=0;strokeColor=#B3B3B3;entryX=0;entryY=0;entryDx=0;entryDy=0;" parent="724" source="719" target="719" edge="1">
                    <mxGeometry relative="1" as="geometry">
                        <mxPoint x="670" y="-20" as="sourcePoint"/>
                        <mxPoint x="190" y="220" as="targetPoint"/>
                    </mxGeometry>
                </mxCell>
                <mxCell id="722" value="Image" style="text;strokeColor=none;align=center;fillColor=none;html=1;verticalAlign=middle;whiteSpace=wrap;rounded=0;fontColor=#999999;" parent="724" vertex="1">
                    <mxGeometry x="30" y="100" width="60" height="10" as="geometry"/>
                </mxCell>
                <mxCell id="725" value="Texte" style="whiteSpace=wrap;html=1;fontSize=12;" parent="1" vertex="1">
                    <mxGeometry x="2880" y="510" width="380" height="30" as="geometry"/>
                </mxCell>
                <mxCell id="726" value="Retour au catalogue" style="text;strokeColor=none;align=left;fillColor=none;html=1;verticalAlign=middle;whiteSpace=wrap;rounded=0;fontStyle=4;fontSize=9;" parent="1" vertex="1">
                    <mxGeometry x="1460" y="100" width="100" height="30" as="geometry"/>
                </mxCell>
                <mxCell id="727" value="" style="group" parent="1" vertex="1" connectable="0">
                    <mxGeometry x="1460" y="140" width="140" height="130" as="geometry"/>
                </mxCell>
                <mxCell id="379" value="" style="whiteSpace=wrap;html=1;" parent="727" vertex="1">
                    <mxGeometry width="140" height="130" as="geometry"/>
                </mxCell>
                <mxCell id="380" style="edgeStyle=none;html=1;exitX=1;exitY=0;exitDx=0;exitDy=0;endArrow=none;endFill=0;strokeColor=#B3B3B3;entryX=0;entryY=1;entryDx=0;entryDy=0;" parent="727" source="379" target="379" edge="1">
                    <mxGeometry relative="1" as="geometry">
                        <mxPoint x="590" y="-99.99999999999994" as="sourcePoint"/>
                        <mxPoint x="590" y="29.230769230769283" as="targetPoint"/>
                    </mxGeometry>
                </mxCell>
                <mxCell id="381" style="edgeStyle=none;html=1;exitX=1;exitY=1;exitDx=0;exitDy=0;endArrow=none;endFill=0;strokeColor=#B3B3B3;entryX=0;entryY=0;entryDx=0;entryDy=0;" parent="727" source="379" target="379" edge="1">
                    <mxGeometry relative="1" as="geometry">
                        <mxPoint x="670" y="-20" as="sourcePoint"/>
                        <mxPoint x="190" y="220" as="targetPoint"/>
                    </mxGeometry>
                </mxCell>
                <mxCell id="382" value="Image" style="text;strokeColor=none;align=center;fillColor=none;html=1;verticalAlign=middle;whiteSpace=wrap;rounded=0;fontColor=#999999;" parent="727" vertex="1">
                    <mxGeometry x="40" y="111" width="60" height="10" as="geometry"/>
                </mxCell>
                <mxCell id="737" value="" style="group" parent="1" vertex="1" connectable="0">
                    <mxGeometry x="40" y="520" width="480" height="240" as="geometry"/>
                </mxCell>
                <mxCell id="15" value="" style="whiteSpace=wrap;html=1;" parent="737" vertex="1">
                    <mxGeometry width="480" height="240" as="geometry"/>
                </mxCell>
                <mxCell id="28" value="Nos arbres autour du monde" style="text;strokeColor=none;align=left;fillColor=none;html=1;verticalAlign=middle;whiteSpace=wrap;rounded=0;fontSize=16;" parent="737" vertex="1">
                    <mxGeometry x="50" y="30" width="210" height="20" as="geometry"/>
                </mxCell>
                <mxCell id="729" value="" style="group" parent="737" vertex="1" connectable="0">
                    <mxGeometry x="50" y="65" width="80" height="148" as="geometry"/>
                </mxCell>
                <mxCell id="728" value="" style="group" parent="729" vertex="1" connectable="0">
                    <mxGeometry width="80" height="148" as="geometry"/>
                </mxCell>
                <mxCell id="29" value="" style="whiteSpace=wrap;html=1;" parent="728" vertex="1">
                    <mxGeometry width="80" height="85" as="geometry"/>
                </mxCell>
                <mxCell id="30" style="edgeStyle=none;html=1;exitX=1;exitY=0;exitDx=0;exitDy=0;endArrow=none;endFill=0;strokeColor=#B3B3B3;entryX=0;entryY=1;entryDx=0;entryDy=0;" parent="728" source="29" target="29" edge="1">
                    <mxGeometry relative="1" as="geometry">
                        <mxPoint x="590" y="-99.99999999999994" as="sourcePoint"/>
                        <mxPoint x="590" y="29.230769230769283" as="targetPoint"/>
                    </mxGeometry>
                </mxCell>
                <mxCell id="31" style="edgeStyle=none;html=1;exitX=1;exitY=1;exitDx=0;exitDy=0;endArrow=none;endFill=0;strokeColor=#B3B3B3;entryX=0;entryY=0;entryDx=0;entryDy=0;" parent="728" source="29" target="29" edge="1">
                    <mxGeometry relative="1" as="geometry">
                        <mxPoint x="670" y="-20" as="sourcePoint"/>
                        <mxPoint x="190" y="220" as="targetPoint"/>
                    </mxGeometry>
                </mxCell>
                <mxCell id="957" value="Text" style="edgeLabel;html=1;align=center;verticalAlign=middle;resizable=0;points=[];" parent="31" vertex="1" connectable="0">
                    <mxGeometry x="-0.029" y="-3" relative="1" as="geometry">
                        <mxPoint y="1" as="offset"/>
                    </mxGeometry>
                </mxCell>
                <mxCell id="33" value="&lt;font style=&quot;font-size: 9px;&quot;&gt;Nom arbre&lt;/font&gt;&lt;div&gt;&lt;font style=&quot;font-size: 9px;&quot;&gt;Localisation&lt;/font&gt;&lt;/div&gt;&lt;div&gt;&lt;font style=&quot;font-size: 9px;&quot;&gt;Projet&lt;/font&gt;&lt;/div&gt;" style="whiteSpace=wrap;html=1;fontSize=12;align=left;verticalAlign=top;" parent="728" vertex="1">
                    <mxGeometry y="85" width="80" height="57" as="geometry"/>
                </mxCell>
                <mxCell id="32" value="Image" style="text;strokeColor=none;align=center;fillColor=none;html=1;verticalAlign=middle;whiteSpace=wrap;rounded=0;fontColor=#999999;" parent="729" vertex="1">
                    <mxGeometry x="10" y="65" width="60" height="10" as="geometry"/>
                </mxCell>
                <mxCell id="835" value="" style="group" parent="737" vertex="1" connectable="0">
                    <mxGeometry x="200" y="65" width="80" height="148" as="geometry"/>
                </mxCell>
                <mxCell id="836" value="" style="group" parent="835" vertex="1" connectable="0">
                    <mxGeometry width="80" height="148" as="geometry"/>
                </mxCell>
                <mxCell id="837" value="" style="whiteSpace=wrap;html=1;" parent="836" vertex="1">
                    <mxGeometry width="80" height="85" as="geometry"/>
                </mxCell>
                <mxCell id="838" style="edgeStyle=none;html=1;exitX=1;exitY=0;exitDx=0;exitDy=0;endArrow=none;endFill=0;strokeColor=#B3B3B3;entryX=0;entryY=1;entryDx=0;entryDy=0;" parent="836" source="837" target="837" edge="1">
                    <mxGeometry relative="1" as="geometry">
                        <mxPoint x="590" y="-99.99999999999994" as="sourcePoint"/>
                        <mxPoint x="590" y="29.230769230769283" as="targetPoint"/>
                    </mxGeometry>
                </mxCell>
                <mxCell id="839" style="edgeStyle=none;html=1;exitX=1;exitY=1;exitDx=0;exitDy=0;endArrow=none;endFill=0;strokeColor=#B3B3B3;entryX=0;entryY=0;entryDx=0;entryDy=0;" parent="836" source="837" target="837" edge="1">
                    <mxGeometry relative="1" as="geometry">
                        <mxPoint x="670" y="-20" as="sourcePoint"/>
                        <mxPoint x="190" y="220" as="targetPoint"/>
                    </mxGeometry>
                </mxCell>
                <mxCell id="840" value="&lt;font style=&quot;font-size: 9px;&quot;&gt;Nom arbre&lt;/font&gt;&lt;div&gt;&lt;font style=&quot;font-size: 9px;&quot;&gt;Localisation&lt;/font&gt;&lt;/div&gt;&lt;div&gt;&lt;font style=&quot;font-size: 9px;&quot;&gt;Projet&lt;/font&gt;&lt;/div&gt;" style="whiteSpace=wrap;html=1;fontSize=12;align=left;verticalAlign=top;" parent="836" vertex="1">
                    <mxGeometry y="85" width="80" height="57" as="geometry"/>
                </mxCell>
                <mxCell id="841" value="Image" style="text;strokeColor=none;align=center;fillColor=none;html=1;verticalAlign=middle;whiteSpace=wrap;rounded=0;fontColor=#999999;" parent="835" vertex="1">
                    <mxGeometry x="10" y="65" width="60" height="10" as="geometry"/>
                </mxCell>
                <mxCell id="859" value="" style="group" parent="737" vertex="1" connectable="0">
                    <mxGeometry x="343" y="65" width="80" height="148" as="geometry"/>
                </mxCell>
                <mxCell id="860" value="" style="group" parent="859" vertex="1" connectable="0">
                    <mxGeometry width="80" height="148" as="geometry"/>
                </mxCell>
                <mxCell id="861" value="" style="whiteSpace=wrap;html=1;" parent="860" vertex="1">
                    <mxGeometry width="80" height="85" as="geometry"/>
                </mxCell>
                <mxCell id="862" style="edgeStyle=none;html=1;exitX=1;exitY=0;exitDx=0;exitDy=0;endArrow=none;endFill=0;strokeColor=#B3B3B3;entryX=0;entryY=1;entryDx=0;entryDy=0;" parent="860" source="861" target="861" edge="1">
                    <mxGeometry relative="1" as="geometry">
                        <mxPoint x="590" y="-99.99999999999994" as="sourcePoint"/>
                        <mxPoint x="590" y="29.230769230769283" as="targetPoint"/>
                    </mxGeometry>
                </mxCell>
                <mxCell id="863" style="edgeStyle=none;html=1;exitX=1;exitY=1;exitDx=0;exitDy=0;endArrow=none;endFill=0;strokeColor=#B3B3B3;entryX=0;entryY=0;entryDx=0;entryDy=0;" parent="860" source="861" target="861" edge="1">
                    <mxGeometry relative="1" as="geometry">
                        <mxPoint x="670" y="-20" as="sourcePoint"/>
                        <mxPoint x="190" y="220" as="targetPoint"/>
                    </mxGeometry>
                </mxCell>
                <mxCell id="864" value="&lt;font style=&quot;font-size: 9px;&quot;&gt;Nom arbre&lt;/font&gt;&lt;div&gt;&lt;font style=&quot;font-size: 9px;&quot;&gt;Localisation&lt;/font&gt;&lt;/div&gt;&lt;div&gt;&lt;font style=&quot;font-size: 9px;&quot;&gt;Projet&lt;/font&gt;&lt;/div&gt;" style="whiteSpace=wrap;html=1;fontSize=12;align=left;verticalAlign=top;" parent="860" vertex="1">
                    <mxGeometry y="85" width="80" height="57" as="geometry"/>
                </mxCell>
                <mxCell id="865" value="Image" style="text;strokeColor=none;align=center;fillColor=none;html=1;verticalAlign=middle;whiteSpace=wrap;rounded=0;fontColor=#999999;" parent="859" vertex="1">
                    <mxGeometry x="10" y="65" width="60" height="10" as="geometry"/>
                </mxCell>
                <mxCell id="741" value="" style="whiteSpace=wrap;html=1;" parent="1" vertex="1">
                    <mxGeometry x="40" y="280" width="480" height="240" as="geometry"/>
                </mxCell>
                <mxCell id="747" value="" style="whiteSpace=wrap;html=1;" parent="1" vertex="1">
                    <mxGeometry x="93" y="342" width="112" height="119" as="geometry"/>
                </mxCell>
                <mxCell id="748" style="edgeStyle=none;html=1;exitX=1;exitY=0;exitDx=0;exitDy=0;endArrow=none;endFill=0;strokeColor=#B3B3B3;entryX=0;entryY=1;entryDx=0;entryDy=0;" parent="1" source="747" target="747" edge="1">
                    <mxGeometry relative="1" as="geometry">
                        <mxPoint x="980" y="245.00000000000006" as="sourcePoint"/>
                        <mxPoint x="980" y="374.2307692307693" as="targetPoint"/>
                    </mxGeometry>
                </mxCell>
                <mxCell id="749" style="edgeStyle=none;html=1;exitX=1;exitY=1;exitDx=0;exitDy=0;endArrow=none;endFill=0;strokeColor=#B3B3B3;entryX=0;entryY=0;entryDx=0;entryDy=0;" parent="1" source="747" target="747" edge="1">
                    <mxGeometry relative="1" as="geometry">
                        <mxPoint x="1060" y="325" as="sourcePoint"/>
                        <mxPoint x="580" y="565" as="targetPoint"/>
                    </mxGeometry>
                </mxCell>
                <mxCell id="750" value="&lt;font size=&quot;1&quot;&gt;Sous description&lt;/font&gt;" style="whiteSpace=wrap;html=1;fontSize=12;align=left;verticalAlign=top;" parent="1" vertex="1">
                    <mxGeometry x="258" y="341" width="210" height="84" as="geometry"/>
                </mxCell>
                <mxCell id="751" value="Voir tous nos arbres" style="whiteSpace=wrap;html=1;fillColor=#eeeeee;strokeColor=#36393d;fontSize=9;" parent="1" vertex="1">
                    <mxGeometry x="258" y="440" width="83" height="20" as="geometry"/>
                </mxCell>
                <mxCell id="768" value="" style="group" parent="1" vertex="1" connectable="0">
                    <mxGeometry x="752" y="191" width="110.12" height="213" as="geometry"/>
                </mxCell>
                <mxCell id="66" value="" style="whiteSpace=wrap;html=1;" parent="768" vertex="1">
                    <mxGeometry width="110.12" height="117" as="geometry"/>
                </mxCell>
                <mxCell id="67" style="edgeStyle=none;html=1;exitX=1;exitY=0;exitDx=0;exitDy=0;endArrow=none;endFill=0;strokeColor=#B3B3B3;entryX=0;entryY=1;entryDx=0;entryDy=0;" parent="768" source="66" target="66" edge="1">
                    <mxGeometry relative="1" as="geometry">
                        <mxPoint x="590" y="-99.99999999999994" as="sourcePoint"/>
                        <mxPoint x="590" y="29.230769230769283" as="targetPoint"/>
                    </mxGeometry>
                </mxCell>
                <mxCell id="68" style="edgeStyle=none;html=1;exitX=1;exitY=1;exitDx=0;exitDy=0;endArrow=none;endFill=0;strokeColor=#B3B3B3;entryX=0;entryY=0;entryDx=0;entryDy=0;" parent="768" source="66" target="66" edge="1">
                    <mxGeometry relative="1" as="geometry">
                        <mxPoint x="670" y="-20" as="sourcePoint"/>
                        <mxPoint x="190" y="220" as="targetPoint"/>
                    </mxGeometry>
                </mxCell>
                <mxCell id="69" value="Image" style="text;strokeColor=none;align=center;fillColor=none;html=1;verticalAlign=middle;whiteSpace=wrap;rounded=0;fontColor=#999999;" parent="768" vertex="1">
                    <mxGeometry x="25.059999999999945" y="101" width="60" height="10" as="geometry"/>
                </mxCell>
                <mxCell id="70" value="&lt;font style=&quot;font-size: 9px;&quot;&gt;&lt;b&gt;Nom arbre&lt;/b&gt;&lt;/font&gt;&lt;div&gt;&lt;font style=&quot;font-size: 9px;&quot;&gt;Localisation&lt;/font&gt;&lt;/div&gt;&lt;div&gt;&lt;font style=&quot;font-size: 9px;&quot;&gt;Projet&lt;/font&gt;&lt;/div&gt;&lt;div&gt;&lt;font style=&quot;font-size: 9px;&quot;&gt;Prix&lt;/font&gt;&lt;/div&gt;" style="whiteSpace=wrap;html=1;fontSize=12;align=left;verticalAlign=top;" parent="768" vertex="1">
                    <mxGeometry y="117" width="110" height="96" as="geometry"/>
                </mxCell>
                <mxCell id="767" value="" style="group" parent="768" vertex="1" connectable="0">
                    <mxGeometry x="3" y="192" width="45" height="13" as="geometry"/>
                </mxCell>
                <mxCell id="762" value="-" style="whiteSpace=wrap;html=1;fontSize=9;verticalAlign=middle;" parent="767" vertex="1">
                    <mxGeometry width="15" height="13" as="geometry"/>
                </mxCell>
                <mxCell id="763" value="1" style="whiteSpace=wrap;html=1;fontSize=9;verticalAlign=middle;" parent="767" vertex="1">
                    <mxGeometry x="15" width="15" height="13" as="geometry"/>
                </mxCell>
                <mxCell id="764" value="+" style="whiteSpace=wrap;html=1;fontSize=9;verticalAlign=middle;" parent="767" vertex="1">
                    <mxGeometry x="30" width="15" height="13" as="geometry"/>
                </mxCell>
                <mxCell id="766" value="Ajouter" style="whiteSpace=wrap;html=1;fillColor=#eeeeee;strokeColor=#36393d;fontSize=9;" parent="768" vertex="1">
                    <mxGeometry x="60" y="192" width="43" height="13" as="geometry"/>
                </mxCell>
                <mxCell id="769" value="" style="group" parent="1" vertex="1" connectable="0">
                    <mxGeometry x="1021" y="190" width="110.12" height="213" as="geometry"/>
                </mxCell>
                <mxCell id="770" value="" style="whiteSpace=wrap;html=1;" parent="769" vertex="1">
                    <mxGeometry width="110.12" height="117" as="geometry"/>
                </mxCell>
                <mxCell id="771" style="edgeStyle=none;html=1;exitX=1;exitY=0;exitDx=0;exitDy=0;endArrow=none;endFill=0;strokeColor=#B3B3B3;entryX=0;entryY=1;entryDx=0;entryDy=0;" parent="769" source="770" target="770" edge="1">
                    <mxGeometry relative="1" as="geometry">
                        <mxPoint x="590" y="-99.99999999999994" as="sourcePoint"/>
                        <mxPoint x="590" y="29.230769230769283" as="targetPoint"/>
                    </mxGeometry>
                </mxCell>
                <mxCell id="772" style="edgeStyle=none;html=1;exitX=1;exitY=1;exitDx=0;exitDy=0;endArrow=none;endFill=0;strokeColor=#B3B3B3;entryX=0;entryY=0;entryDx=0;entryDy=0;" parent="769" source="770" target="770" edge="1">
                    <mxGeometry relative="1" as="geometry">
                        <mxPoint x="670" y="-20" as="sourcePoint"/>
                        <mxPoint x="190" y="220" as="targetPoint"/>
                    </mxGeometry>
                </mxCell>
                <mxCell id="773" value="Image" style="text;strokeColor=none;align=center;fillColor=none;html=1;verticalAlign=middle;whiteSpace=wrap;rounded=0;fontColor=#999999;" parent="769" vertex="1">
                    <mxGeometry x="25.059999999999945" y="101" width="60" height="10" as="geometry"/>
                </mxCell>
                <mxCell id="774" value="&lt;font style=&quot;font-size: 9px;&quot;&gt;&lt;b&gt;Nom arbre&lt;/b&gt;&lt;/font&gt;&lt;div&gt;&lt;font style=&quot;font-size: 9px;&quot;&gt;Localisation&lt;/font&gt;&lt;/div&gt;&lt;div&gt;&lt;font style=&quot;font-size: 9px;&quot;&gt;Projet&lt;/font&gt;&lt;/div&gt;&lt;div&gt;&lt;font style=&quot;font-size: 9px;&quot;&gt;Prix&lt;/font&gt;&lt;/div&gt;" style="whiteSpace=wrap;html=1;fontSize=12;align=left;verticalAlign=top;" parent="769" vertex="1">
                    <mxGeometry y="117" width="110" height="96" as="geometry"/>
                </mxCell>
                <mxCell id="775" value="" style="group" parent="769" vertex="1" connectable="0">
                    <mxGeometry x="3" y="192" width="45" height="13" as="geometry"/>
                </mxCell>
                <mxCell id="776" value="-" style="whiteSpace=wrap;html=1;fontSize=9;verticalAlign=middle;" parent="775" vertex="1">
                    <mxGeometry width="15" height="13" as="geometry"/>
                </mxCell>
                <mxCell id="777" value="1" style="whiteSpace=wrap;html=1;fontSize=9;verticalAlign=middle;" parent="775" vertex="1">
                    <mxGeometry x="15" width="15" height="13" as="geometry"/>
                </mxCell>
                <mxCell id="778" value="+" style="whiteSpace=wrap;html=1;fontSize=9;verticalAlign=middle;" parent="775" vertex="1">
                    <mxGeometry x="30" width="15" height="13" as="geometry"/>
                </mxCell>
                <mxCell id="779" value="Ajouter" style="whiteSpace=wrap;html=1;fillColor=#eeeeee;strokeColor=#36393d;fontSize=9;" parent="769" vertex="1">
                    <mxGeometry x="60" y="192" width="43" height="13" as="geometry"/>
                </mxCell>
                <mxCell id="780" value="" style="group" parent="1" vertex="1" connectable="0">
                    <mxGeometry x="886" y="191" width="110.12" height="213" as="geometry"/>
                </mxCell>
                <mxCell id="781" value="" style="whiteSpace=wrap;html=1;" parent="780" vertex="1">
                    <mxGeometry width="110.12" height="117" as="geometry"/>
                </mxCell>
                <mxCell id="782" style="edgeStyle=none;html=1;exitX=1;exitY=0;exitDx=0;exitDy=0;endArrow=none;endFill=0;strokeColor=#B3B3B3;entryX=0;entryY=1;entryDx=0;entryDy=0;" parent="780" source="781" target="781" edge="1">
                    <mxGeometry relative="1" as="geometry">
                        <mxPoint x="590" y="-99.99999999999994" as="sourcePoint"/>
                        <mxPoint x="590" y="29.230769230769283" as="targetPoint"/>
                    </mxGeometry>
                </mxCell>
                <mxCell id="783" style="edgeStyle=none;html=1;exitX=1;exitY=1;exitDx=0;exitDy=0;endArrow=none;endFill=0;strokeColor=#B3B3B3;entryX=0;entryY=0;entryDx=0;entryDy=0;" parent="780" source="781" target="781" edge="1">
                    <mxGeometry relative="1" as="geometry">
                        <mxPoint x="670" y="-20" as="sourcePoint"/>
                        <mxPoint x="190" y="220" as="targetPoint"/>
                    </mxGeometry>
                </mxCell>
                <mxCell id="784" value="Image" style="text;strokeColor=none;align=center;fillColor=none;html=1;verticalAlign=middle;whiteSpace=wrap;rounded=0;fontColor=#999999;" parent="780" vertex="1">
                    <mxGeometry x="25.059999999999945" y="101" width="60" height="10" as="geometry"/>
                </mxCell>
                <mxCell id="785" value="&lt;font style=&quot;font-size: 9px;&quot;&gt;&lt;b&gt;Nom arbre&lt;/b&gt;&lt;/font&gt;&lt;div&gt;&lt;font style=&quot;font-size: 9px;&quot;&gt;Localisation&lt;/font&gt;&lt;/div&gt;&lt;div&gt;&lt;font style=&quot;font-size: 9px;&quot;&gt;Projet&lt;/font&gt;&lt;/div&gt;&lt;div&gt;&lt;font style=&quot;font-size: 9px;&quot;&gt;Prix&lt;/font&gt;&lt;/div&gt;" style="whiteSpace=wrap;html=1;fontSize=12;align=left;verticalAlign=top;" parent="780" vertex="1">
                    <mxGeometry y="117" width="110" height="96" as="geometry"/>
                </mxCell>
                <mxCell id="786" value="" style="group" parent="780" vertex="1" connectable="0">
                    <mxGeometry x="3" y="192" width="45" height="13" as="geometry"/>
                </mxCell>
                <mxCell id="787" value="-" style="whiteSpace=wrap;html=1;fontSize=9;verticalAlign=middle;" parent="786" vertex="1">
                    <mxGeometry width="15" height="13" as="geometry"/>
                </mxCell>
                <mxCell id="788" value="1" style="whiteSpace=wrap;html=1;fontSize=9;verticalAlign=middle;" parent="786" vertex="1">
                    <mxGeometry x="15" width="15" height="13" as="geometry"/>
                </mxCell>
                <mxCell id="789" value="+" style="whiteSpace=wrap;html=1;fontSize=9;verticalAlign=middle;" parent="786" vertex="1">
                    <mxGeometry x="30" width="15" height="13" as="geometry"/>
                </mxCell>
                <mxCell id="790" value="Ajouter" style="whiteSpace=wrap;html=1;fillColor=#eeeeee;strokeColor=#36393d;fontSize=9;" parent="780" vertex="1">
                    <mxGeometry x="60" y="192" width="43" height="13" as="geometry"/>
                </mxCell>
                <mxCell id="792" value="" style="group" parent="1" vertex="1" connectable="0">
                    <mxGeometry x="752" y="440" width="110.12" height="213" as="geometry"/>
                </mxCell>
                <mxCell id="793" value="" style="whiteSpace=wrap;html=1;" parent="792" vertex="1">
                    <mxGeometry width="110.12" height="117" as="geometry"/>
                </mxCell>
                <mxCell id="794" style="edgeStyle=none;html=1;exitX=1;exitY=0;exitDx=0;exitDy=0;endArrow=none;endFill=0;strokeColor=#B3B3B3;entryX=0;entryY=1;entryDx=0;entryDy=0;" parent="792" source="793" target="793" edge="1">
                    <mxGeometry relative="1" as="geometry">
                        <mxPoint x="590" y="-99.99999999999994" as="sourcePoint"/>
                        <mxPoint x="590" y="29.230769230769283" as="targetPoint"/>
                    </mxGeometry>
                </mxCell>
                <mxCell id="795" style="edgeStyle=none;html=1;exitX=1;exitY=1;exitDx=0;exitDy=0;endArrow=none;endFill=0;strokeColor=#B3B3B3;entryX=0;entryY=0;entryDx=0;entryDy=0;" parent="792" source="793" target="793" edge="1">
                    <mxGeometry relative="1" as="geometry">
                        <mxPoint x="670" y="-20" as="sourcePoint"/>
                        <mxPoint x="190" y="220" as="targetPoint"/>
                    </mxGeometry>
                </mxCell>
                <mxCell id="796" value="Image" style="text;strokeColor=none;align=center;fillColor=none;html=1;verticalAlign=middle;whiteSpace=wrap;rounded=0;fontColor=#999999;" parent="792" vertex="1">
                    <mxGeometry x="25.059999999999945" y="101" width="60" height="10" as="geometry"/>
                </mxCell>
                <mxCell id="797" value="&lt;font style=&quot;font-size: 9px;&quot;&gt;&lt;b&gt;Nom arbre&lt;/b&gt;&lt;/font&gt;&lt;div&gt;&lt;font style=&quot;font-size: 9px;&quot;&gt;Localisation&lt;/font&gt;&lt;/div&gt;&lt;div&gt;&lt;font style=&quot;font-size: 9px;&quot;&gt;Projet&lt;/font&gt;&lt;/div&gt;&lt;div&gt;&lt;font style=&quot;font-size: 9px;&quot;&gt;Prix&lt;/font&gt;&lt;/div&gt;" style="whiteSpace=wrap;html=1;fontSize=12;align=left;verticalAlign=top;" parent="792" vertex="1">
                    <mxGeometry y="117" width="110" height="96" as="geometry"/>
                </mxCell>
                <mxCell id="798" value="" style="group" parent="792" vertex="1" connectable="0">
                    <mxGeometry x="3" y="192" width="45" height="13" as="geometry"/>
                </mxCell>
                <mxCell id="799" value="-" style="whiteSpace=wrap;html=1;fontSize=9;verticalAlign=middle;" parent="798" vertex="1">
                    <mxGeometry width="15" height="13" as="geometry"/>
                </mxCell>
                <mxCell id="800" value="1" style="whiteSpace=wrap;html=1;fontSize=9;verticalAlign=middle;" parent="798" vertex="1">
                    <mxGeometry x="15" width="15" height="13" as="geometry"/>
                </mxCell>
                <mxCell id="801" value="+" style="whiteSpace=wrap;html=1;fontSize=9;verticalAlign=middle;" parent="798" vertex="1">
                    <mxGeometry x="30" width="15" height="13" as="geometry"/>
                </mxCell>
                <mxCell id="802" value="Ajouter" style="whiteSpace=wrap;html=1;fillColor=#eeeeee;strokeColor=#36393d;fontSize=9;" parent="792" vertex="1">
                    <mxGeometry x="60" y="192" width="43" height="13" as="geometry"/>
                </mxCell>
                <mxCell id="803" value="" style="group" parent="1" vertex="1" connectable="0">
                    <mxGeometry x="1021" y="439" width="110.12" height="213" as="geometry"/>
                </mxCell>
                <mxCell id="804" value="" style="whiteSpace=wrap;html=1;" parent="803" vertex="1">
                    <mxGeometry width="110.12" height="117" as="geometry"/>
                </mxCell>
                <mxCell id="805" style="edgeStyle=none;html=1;exitX=1;exitY=0;exitDx=0;exitDy=0;endArrow=none;endFill=0;strokeColor=#B3B3B3;entryX=0;entryY=1;entryDx=0;entryDy=0;" parent="803" source="804" target="804" edge="1">
                    <mxGeometry relative="1" as="geometry">
                        <mxPoint x="590" y="-99.99999999999994" as="sourcePoint"/>
                        <mxPoint x="590" y="29.230769230769283" as="targetPoint"/>
                    </mxGeometry>
                </mxCell>
                <mxCell id="806" style="edgeStyle=none;html=1;exitX=1;exitY=1;exitDx=0;exitDy=0;endArrow=none;endFill=0;strokeColor=#B3B3B3;entryX=0;entryY=0;entryDx=0;entryDy=0;" parent="803" source="804" target="804" edge="1">
                    <mxGeometry relative="1" as="geometry">
                        <mxPoint x="670" y="-20" as="sourcePoint"/>
                        <mxPoint x="190" y="220" as="targetPoint"/>
                    </mxGeometry>
                </mxCell>
                <mxCell id="807" value="Image" style="text;strokeColor=none;align=center;fillColor=none;html=1;verticalAlign=middle;whiteSpace=wrap;rounded=0;fontColor=#999999;" parent="803" vertex="1">
                    <mxGeometry x="25.059999999999945" y="101" width="60" height="10" as="geometry"/>
                </mxCell>
                <mxCell id="808" value="&lt;font style=&quot;font-size: 9px;&quot;&gt;&lt;b&gt;Nom arbre&lt;/b&gt;&lt;/font&gt;&lt;div&gt;&lt;font style=&quot;font-size: 9px;&quot;&gt;Localisation&lt;/font&gt;&lt;/div&gt;&lt;div&gt;&lt;font style=&quot;font-size: 9px;&quot;&gt;Projet&lt;/font&gt;&lt;/div&gt;&lt;div&gt;&lt;font style=&quot;font-size: 9px;&quot;&gt;Prix&lt;/font&gt;&lt;/div&gt;" style="whiteSpace=wrap;html=1;fontSize=12;align=left;verticalAlign=top;" parent="803" vertex="1">
                    <mxGeometry y="117" width="110" height="96" as="geometry"/>
                </mxCell>
                <mxCell id="809" value="" style="group" parent="803" vertex="1" connectable="0">
                    <mxGeometry x="3" y="192" width="45" height="13" as="geometry"/>
                </mxCell>
                <mxCell id="810" value="-" style="whiteSpace=wrap;html=1;fontSize=9;verticalAlign=middle;" parent="809" vertex="1">
                    <mxGeometry width="15" height="13" as="geometry"/>
                </mxCell>
                <mxCell id="811" value="1" style="whiteSpace=wrap;html=1;fontSize=9;verticalAlign=middle;" parent="809" vertex="1">
                    <mxGeometry x="15" width="15" height="13" as="geometry"/>
                </mxCell>
                <mxCell id="812" value="+" style="whiteSpace=wrap;html=1;fontSize=9;verticalAlign=middle;" parent="809" vertex="1">
                    <mxGeometry x="30" width="15" height="13" as="geometry"/>
                </mxCell>
                <mxCell id="813" value="Ajouter" style="whiteSpace=wrap;html=1;fillColor=#eeeeee;strokeColor=#36393d;fontSize=9;" parent="803" vertex="1">
                    <mxGeometry x="60" y="192" width="43" height="13" as="geometry"/>
                </mxCell>
                <mxCell id="814" value="" style="group" parent="1" vertex="1" connectable="0">
                    <mxGeometry x="886" y="440" width="110.12" height="213" as="geometry"/>
                </mxCell>
                <mxCell id="815" value="" style="whiteSpace=wrap;html=1;" parent="814" vertex="1">
                    <mxGeometry width="110.12" height="117" as="geometry"/>
                </mxCell>
                <mxCell id="816" style="edgeStyle=none;html=1;exitX=1;exitY=0;exitDx=0;exitDy=0;endArrow=none;endFill=0;strokeColor=#B3B3B3;entryX=0;entryY=1;entryDx=0;entryDy=0;" parent="814" source="815" target="815" edge="1">
                    <mxGeometry relative="1" as="geometry">
                        <mxPoint x="590" y="-99.99999999999994" as="sourcePoint"/>
                        <mxPoint x="590" y="29.230769230769283" as="targetPoint"/>
                    </mxGeometry>
                </mxCell>
                <mxCell id="817" style="edgeStyle=none;html=1;exitX=1;exitY=1;exitDx=0;exitDy=0;endArrow=none;endFill=0;strokeColor=#B3B3B3;entryX=0;entryY=0;entryDx=0;entryDy=0;" parent="814" source="815" target="815" edge="1">
                    <mxGeometry relative="1" as="geometry">
                        <mxPoint x="670" y="-20" as="sourcePoint"/>
                        <mxPoint x="190" y="220" as="targetPoint"/>
                    </mxGeometry>
                </mxCell>
                <mxCell id="818" value="Image" style="text;strokeColor=none;align=center;fillColor=none;html=1;verticalAlign=middle;whiteSpace=wrap;rounded=0;fontColor=#999999;" parent="814" vertex="1">
                    <mxGeometry x="25.059999999999945" y="101" width="60" height="10" as="geometry"/>
                </mxCell>
                <mxCell id="819" value="&lt;font style=&quot;font-size: 9px;&quot;&gt;&lt;b&gt;Nom arbre&lt;/b&gt;&lt;/font&gt;&lt;div&gt;&lt;font style=&quot;font-size: 9px;&quot;&gt;Localisation&lt;/font&gt;&lt;/div&gt;&lt;div&gt;&lt;font style=&quot;font-size: 9px;&quot;&gt;Projet&lt;/font&gt;&lt;/div&gt;&lt;div&gt;&lt;font style=&quot;font-size: 9px;&quot;&gt;Prix&lt;/font&gt;&lt;/div&gt;" style="whiteSpace=wrap;html=1;fontSize=12;align=left;verticalAlign=top;" parent="814" vertex="1">
                    <mxGeometry y="117" width="110" height="96" as="geometry"/>
                </mxCell>
                <mxCell id="820" value="" style="group" parent="814" vertex="1" connectable="0">
                    <mxGeometry x="3" y="192" width="45" height="13" as="geometry"/>
                </mxCell>
                <mxCell id="821" value="-" style="whiteSpace=wrap;html=1;fontSize=9;verticalAlign=middle;" parent="820" vertex="1">
                    <mxGeometry width="15" height="13" as="geometry"/>
                </mxCell>
                <mxCell id="822" value="1" style="whiteSpace=wrap;html=1;fontSize=9;verticalAlign=middle;" parent="820" vertex="1">
                    <mxGeometry x="15" width="15" height="13" as="geometry"/>
                </mxCell>
                <mxCell id="823" value="+" style="whiteSpace=wrap;html=1;fontSize=9;verticalAlign=middle;" parent="820" vertex="1">
                    <mxGeometry x="30" width="15" height="13" as="geometry"/>
                </mxCell>
                <mxCell id="824" value="Ajouter" style="whiteSpace=wrap;html=1;fillColor=#eeeeee;strokeColor=#36393d;fontSize=9;" parent="814" vertex="1">
                    <mxGeometry x="60" y="192" width="43" height="13" as="geometry"/>
                </mxCell>
                <mxCell id="825" value="Projet" style="text;strokeColor=none;align=left;fillColor=none;html=1;verticalAlign=middle;whiteSpace=wrap;rounded=0;fontSize=9;" parent="1" vertex="1">
                    <mxGeometry x="1642" y="181" width="210" height="10" as="geometry"/>
                </mxCell>
                <mxCell id="830" value="" style="group" parent="1" vertex="1" connectable="0">
                    <mxGeometry x="1642" y="251" width="57" height="20" as="geometry"/>
                </mxCell>
                <mxCell id="826" value="-" style="whiteSpace=wrap;html=1;fontSize=9;" parent="830" vertex="1">
                    <mxGeometry width="19" height="20" as="geometry"/>
                </mxCell>
                <mxCell id="827" value="1" style="whiteSpace=wrap;html=1;fontSize=9;" parent="830" vertex="1">
                    <mxGeometry x="19" width="19" height="20" as="geometry"/>
                </mxCell>
                <mxCell id="829" value="+" style="whiteSpace=wrap;html=1;fontSize=9;" parent="830" vertex="1">
                    <mxGeometry x="38" width="19" height="20" as="geometry"/>
                </mxCell>
                <mxCell id="831" value="Localisation" style="text;strokeColor=none;align=left;fillColor=none;html=1;verticalAlign=middle;whiteSpace=wrap;rounded=0;fontSize=9;fontColor=#808080;" parent="1" vertex="1">
                    <mxGeometry x="2283" y="210" width="50" height="20" as="geometry"/>
                </mxCell>
                <mxCell id="832" value="Projet" style="text;strokeColor=none;align=left;fillColor=none;html=1;verticalAlign=middle;whiteSpace=wrap;rounded=0;fontSize=9;fontColor=#808080;" parent="1" vertex="1">
                    <mxGeometry x="2283" y="231" width="50" height="20" as="geometry"/>
                </mxCell>
                <mxCell id="833" value="Localisation" style="text;strokeColor=none;align=left;fillColor=none;html=1;verticalAlign=middle;whiteSpace=wrap;rounded=0;fontSize=9;fontColor=#808080;" parent="1" vertex="1">
                    <mxGeometry x="2281" y="317" width="50" height="20" as="geometry"/>
                </mxCell>
                <mxCell id="834" value="Projet" style="text;strokeColor=none;align=left;fillColor=none;html=1;verticalAlign=middle;whiteSpace=wrap;rounded=0;fontSize=9;fontColor=#808080;" parent="1" vertex="1">
                    <mxGeometry x="2281" y="338" width="50" height="20" as="geometry"/>
                </mxCell>
                <mxCell id="866" value="" style="group" parent="1" vertex="1" connectable="0">
                    <mxGeometry x="743" y="1130" width="110.12" height="213" as="geometry"/>
                </mxCell>
                <mxCell id="867" value="" style="whiteSpace=wrap;html=1;" parent="866" vertex="1">
                    <mxGeometry width="110.12" height="117" as="geometry"/>
                </mxCell>
                <mxCell id="868" style="edgeStyle=none;html=1;exitX=1;exitY=0;exitDx=0;exitDy=0;endArrow=none;endFill=0;strokeColor=#B3B3B3;entryX=0;entryY=1;entryDx=0;entryDy=0;" parent="866" source="867" target="867" edge="1">
                    <mxGeometry relative="1" as="geometry">
                        <mxPoint x="590" y="-99.99999999999994" as="sourcePoint"/>
                        <mxPoint x="590" y="29.230769230769283" as="targetPoint"/>
                    </mxGeometry>
                </mxCell>
                <mxCell id="869" style="edgeStyle=none;html=1;exitX=1;exitY=1;exitDx=0;exitDy=0;endArrow=none;endFill=0;strokeColor=#B3B3B3;entryX=0;entryY=0;entryDx=0;entryDy=0;" parent="866" source="867" target="867" edge="1">
                    <mxGeometry relative="1" as="geometry">
                        <mxPoint x="670" y="-20" as="sourcePoint"/>
                        <mxPoint x="190" y="220" as="targetPoint"/>
                    </mxGeometry>
                </mxCell>
                <mxCell id="870" value="Image" style="text;strokeColor=none;align=center;fillColor=none;html=1;verticalAlign=middle;whiteSpace=wrap;rounded=0;fontColor=#999999;" parent="866" vertex="1">
                    <mxGeometry x="25.059999999999945" y="101" width="60" height="10" as="geometry"/>
                </mxCell>
                <mxCell id="871" value="&lt;font style=&quot;font-size: 9px;&quot;&gt;&lt;b&gt;Nom arbre&lt;/b&gt;&lt;/font&gt;&lt;div&gt;&lt;font style=&quot;font-size: 9px;&quot;&gt;Localisation&lt;/font&gt;&lt;/div&gt;&lt;div&gt;&lt;font style=&quot;font-size: 9px;&quot;&gt;Projet&lt;/font&gt;&lt;/div&gt;&lt;div&gt;&lt;font style=&quot;font-size: 9px;&quot;&gt;Prix&lt;/font&gt;&lt;/div&gt;" style="whiteSpace=wrap;html=1;fontSize=12;align=left;verticalAlign=top;" parent="866" vertex="1">
                    <mxGeometry y="117" width="110" height="96" as="geometry"/>
                </mxCell>
                <mxCell id="876" value="supp" style="whiteSpace=wrap;html=1;fontSize=9;" parent="866" vertex="1">
                    <mxGeometry x="55" y="192" width="43" height="13" as="geometry"/>
                </mxCell>
                <mxCell id="884" value="edit" style="whiteSpace=wrap;html=1;fontSize=9;" parent="866" vertex="1">
                    <mxGeometry x="3" y="192" width="43" height="13" as="geometry"/>
                </mxCell>
                <mxCell id="885" value="" style="group" parent="1" vertex="1" connectable="0">
                    <mxGeometry x="1026" y="1160" width="1034" height="571" as="geometry"/>
                </mxCell>
                <mxCell id="886" value="" style="whiteSpace=wrap;html=1;" parent="885" vertex="1">
                    <mxGeometry width="110.12" height="117" as="geometry"/>
                </mxCell>
                <mxCell id="887" style="edgeStyle=none;html=1;exitX=1;exitY=0;exitDx=0;exitDy=0;endArrow=none;endFill=0;strokeColor=#B3B3B3;entryX=0;entryY=1;entryDx=0;entryDy=0;" parent="885" source="886" target="886" edge="1">
                    <mxGeometry relative="1" as="geometry">
                        <mxPoint x="590" y="-99.99999999999994" as="sourcePoint"/>
                        <mxPoint x="590" y="29.230769230769283" as="targetPoint"/>
                    </mxGeometry>
                </mxCell>
                <mxCell id="888" style="edgeStyle=none;html=1;exitX=1;exitY=1;exitDx=0;exitDy=0;endArrow=none;endFill=0;strokeColor=#B3B3B3;entryX=0;entryY=0;entryDx=0;entryDy=0;" parent="885" source="886" target="886" edge="1">
                    <mxGeometry relative="1" as="geometry">
                        <mxPoint x="670" y="-20" as="sourcePoint"/>
                        <mxPoint x="190" y="220" as="targetPoint"/>
                    </mxGeometry>
                </mxCell>
                <mxCell id="889" value="Image" style="text;strokeColor=none;align=center;fillColor=none;html=1;verticalAlign=middle;whiteSpace=wrap;rounded=0;fontColor=#999999;" parent="885" vertex="1">
                    <mxGeometry x="25.059999999999945" y="101" width="60" height="10" as="geometry"/>
                </mxCell>
                <mxCell id="890" value="&lt;font style=&quot;font-size: 9px;&quot;&gt;&lt;b&gt;Nom arbre&lt;/b&gt;&lt;/font&gt;&lt;div&gt;&lt;font style=&quot;font-size: 9px;&quot;&gt;Localisation&lt;/font&gt;&lt;/div&gt;&lt;div&gt;&lt;font style=&quot;font-size: 9px;&quot;&gt;Projet&lt;/font&gt;&lt;/div&gt;&lt;div&gt;&lt;font style=&quot;font-size: 9px;&quot;&gt;Prix&lt;/font&gt;&lt;/div&gt;" style="whiteSpace=wrap;html=1;fontSize=12;align=left;verticalAlign=top;" parent="885" vertex="1">
                    <mxGeometry y="117" width="110" height="96" as="geometry"/>
                </mxCell>
                <mxCell id="891" value="supp" style="whiteSpace=wrap;html=1;fontSize=9;" parent="885" vertex="1">
                    <mxGeometry x="55" y="192" width="43" height="13" as="geometry"/>
                </mxCell>
                <mxCell id="892" value="edit" style="whiteSpace=wrap;html=1;fontSize=9;" parent="885" vertex="1">
                    <mxGeometry x="3" y="192" width="43" height="13" as="geometry"/>
                </mxCell>
                <mxCell id="893" value="" style="group" parent="1" vertex="1" connectable="0">
                    <mxGeometry x="873" y="1130" width="1189" height="842" as="geometry"/>
                </mxCell>
                <mxCell id="894" value="" style="whiteSpace=wrap;html=1;" parent="893" vertex="1">
                    <mxGeometry width="110.12" height="117" as="geometry"/>
                </mxCell>
                <mxCell id="895" style="edgeStyle=none;html=1;exitX=1;exitY=0;exitDx=0;exitDy=0;endArrow=none;endFill=0;strokeColor=#B3B3B3;entryX=0;entryY=1;entryDx=0;entryDy=0;" parent="893" source="894" target="894" edge="1">
                    <mxGeometry relative="1" as="geometry">
                        <mxPoint x="590" y="-99.99999999999994" as="sourcePoint"/>
                        <mxPoint x="590" y="29.230769230769283" as="targetPoint"/>
                    </mxGeometry>
                </mxCell>
                <mxCell id="896" style="edgeStyle=none;html=1;exitX=1;exitY=1;exitDx=0;exitDy=0;endArrow=none;endFill=0;strokeColor=#B3B3B3;entryX=0;entryY=0;entryDx=0;entryDy=0;" parent="893" source="894" target="894" edge="1">
                    <mxGeometry relative="1" as="geometry">
                        <mxPoint x="670" y="-20" as="sourcePoint"/>
                        <mxPoint x="190" y="220" as="targetPoint"/>
                    </mxGeometry>
                </mxCell>
                <mxCell id="897" value="Image" style="text;strokeColor=none;align=center;fillColor=none;html=1;verticalAlign=middle;whiteSpace=wrap;rounded=0;fontColor=#999999;" parent="893" vertex="1">
                    <mxGeometry x="25.059999999999945" y="101" width="60" height="10" as="geometry"/>
                </mxCell>
                <mxCell id="898" value="&lt;font style=&quot;font-size: 9px;&quot;&gt;&lt;b&gt;Nom arbre&lt;/b&gt;&lt;/font&gt;&lt;div&gt;&lt;font style=&quot;font-size: 9px;&quot;&gt;Localisation&lt;/font&gt;&lt;/div&gt;&lt;div&gt;&lt;font style=&quot;font-size: 9px;&quot;&gt;Projet&lt;/font&gt;&lt;/div&gt;&lt;div&gt;&lt;font style=&quot;font-size: 9px;&quot;&gt;Prix&lt;/font&gt;&lt;/div&gt;" style="whiteSpace=wrap;html=1;fontSize=12;align=left;verticalAlign=top;" parent="893" vertex="1">
                    <mxGeometry y="117" width="110" height="96" as="geometry"/>
                </mxCell>
                <mxCell id="899" value="supp" style="whiteSpace=wrap;html=1;fontSize=9;" parent="893" vertex="1">
                    <mxGeometry x="55" y="192" width="43" height="13" as="geometry"/>
                </mxCell>
                <mxCell id="900" value="edit" style="whiteSpace=wrap;html=1;fontSize=9;" parent="893" vertex="1">
                    <mxGeometry x="3" y="192" width="43" height="13" as="geometry"/>
                </mxCell>
                <mxCell id="901" value="" style="group" parent="1" vertex="1" connectable="0">
                    <mxGeometry x="742" y="1384" width="110.12" height="213" as="geometry"/>
                </mxCell>
                <mxCell id="902" value="" style="whiteSpace=wrap;html=1;" parent="901" vertex="1">
                    <mxGeometry width="110.12" height="117" as="geometry"/>
                </mxCell>
                <mxCell id="903" style="edgeStyle=none;html=1;exitX=1;exitY=0;exitDx=0;exitDy=0;endArrow=none;endFill=0;strokeColor=#B3B3B3;entryX=0;entryY=1;entryDx=0;entryDy=0;" parent="901" source="902" target="902" edge="1">
                    <mxGeometry relative="1" as="geometry">
                        <mxPoint x="590" y="-99.99999999999994" as="sourcePoint"/>
                        <mxPoint x="590" y="29.230769230769283" as="targetPoint"/>
                    </mxGeometry>
                </mxCell>
                <mxCell id="904" style="edgeStyle=none;html=1;exitX=1;exitY=1;exitDx=0;exitDy=0;endArrow=none;endFill=0;strokeColor=#B3B3B3;entryX=0;entryY=0;entryDx=0;entryDy=0;" parent="901" source="902" target="902" edge="1">
                    <mxGeometry relative="1" as="geometry">
                        <mxPoint x="670" y="-20" as="sourcePoint"/>
                        <mxPoint x="190" y="220" as="targetPoint"/>
                    </mxGeometry>
                </mxCell>
                <mxCell id="905" value="Image" style="text;strokeColor=none;align=center;fillColor=none;html=1;verticalAlign=middle;whiteSpace=wrap;rounded=0;fontColor=#999999;" parent="901" vertex="1">
                    <mxGeometry x="25.059999999999945" y="101" width="60" height="10" as="geometry"/>
                </mxCell>
                <mxCell id="906" value="&lt;font style=&quot;font-size: 9px;&quot;&gt;&lt;b&gt;Nom arbre&lt;/b&gt;&lt;/font&gt;&lt;div&gt;&lt;font style=&quot;font-size: 9px;&quot;&gt;Localisation&lt;/font&gt;&lt;/div&gt;&lt;div&gt;&lt;font style=&quot;font-size: 9px;&quot;&gt;Projet&lt;/font&gt;&lt;/div&gt;&lt;div&gt;&lt;font style=&quot;font-size: 9px;&quot;&gt;Prix&lt;/font&gt;&lt;/div&gt;" style="whiteSpace=wrap;html=1;fontSize=12;align=left;verticalAlign=top;" parent="901" vertex="1">
                    <mxGeometry y="117" width="110" height="96" as="geometry"/>
                </mxCell>
                <mxCell id="907" value="supp" style="whiteSpace=wrap;html=1;fontSize=9;" parent="901" vertex="1">
                    <mxGeometry x="55" y="192" width="43" height="13" as="geometry"/>
                </mxCell>
                <mxCell id="908" value="edit" style="whiteSpace=wrap;html=1;fontSize=9;" parent="901" vertex="1">
                    <mxGeometry x="3" y="192" width="43" height="13" as="geometry"/>
                </mxCell>
                <mxCell id="909" value="" style="group" parent="1" vertex="1" connectable="0">
                    <mxGeometry x="1008" y="1384" width="110.12" height="213" as="geometry"/>
                </mxCell>
                <mxCell id="910" value="" style="whiteSpace=wrap;html=1;" parent="909" vertex="1">
                    <mxGeometry width="110.12" height="117" as="geometry"/>
                </mxCell>
                <mxCell id="911" style="edgeStyle=none;html=1;exitX=1;exitY=0;exitDx=0;exitDy=0;endArrow=none;endFill=0;strokeColor=#B3B3B3;entryX=0;entryY=1;entryDx=0;entryDy=0;" parent="909" source="910" target="910" edge="1">
                    <mxGeometry relative="1" as="geometry">
                        <mxPoint x="590" y="-99.99999999999994" as="sourcePoint"/>
                        <mxPoint x="590" y="29.230769230769283" as="targetPoint"/>
                    </mxGeometry>
                </mxCell>
                <mxCell id="912" style="edgeStyle=none;html=1;exitX=1;exitY=1;exitDx=0;exitDy=0;endArrow=none;endFill=0;strokeColor=#B3B3B3;entryX=0;entryY=0;entryDx=0;entryDy=0;" parent="909" source="910" target="910" edge="1">
                    <mxGeometry relative="1" as="geometry">
                        <mxPoint x="670" y="-20" as="sourcePoint"/>
                        <mxPoint x="190" y="220" as="targetPoint"/>
                    </mxGeometry>
                </mxCell>
                <mxCell id="913" value="Image" style="text;strokeColor=none;align=center;fillColor=none;html=1;verticalAlign=middle;whiteSpace=wrap;rounded=0;fontColor=#999999;" parent="909" vertex="1">
                    <mxGeometry x="25.059999999999945" y="101" width="60" height="10" as="geometry"/>
                </mxCell>
                <mxCell id="914" value="&lt;font style=&quot;font-size: 9px;&quot;&gt;&lt;b&gt;Nom arbre&lt;/b&gt;&lt;/font&gt;&lt;div&gt;&lt;font style=&quot;font-size: 9px;&quot;&gt;Localisation&lt;/font&gt;&lt;/div&gt;&lt;div&gt;&lt;font style=&quot;font-size: 9px;&quot;&gt;Projet&lt;/font&gt;&lt;/div&gt;&lt;div&gt;&lt;font style=&quot;font-size: 9px;&quot;&gt;Prix&lt;/font&gt;&lt;/div&gt;" style="whiteSpace=wrap;html=1;fontSize=12;align=left;verticalAlign=top;" parent="909" vertex="1">
                    <mxGeometry y="117" width="110" height="96" as="geometry"/>
                </mxCell>
                <mxCell id="915" value="supp" style="whiteSpace=wrap;html=1;fontSize=9;" parent="909" vertex="1">
                    <mxGeometry x="55" y="192" width="43" height="13" as="geometry"/>
                </mxCell>
                <mxCell id="916" value="edit" style="whiteSpace=wrap;html=1;fontSize=9;" parent="909" vertex="1">
                    <mxGeometry x="3" y="192" width="43" height="13" as="geometry"/>
                </mxCell>
                <mxCell id="917" value="" style="group" parent="1" vertex="1" connectable="0">
                    <mxGeometry x="872" y="1384" width="1053" height="1242" as="geometry"/>
                </mxCell>
                <mxCell id="918" value="" style="whiteSpace=wrap;html=1;" parent="917" vertex="1">
                    <mxGeometry width="110.12" height="117" as="geometry"/>
                </mxCell>
                <mxCell id="919" style="edgeStyle=none;html=1;exitX=1;exitY=0;exitDx=0;exitDy=0;endArrow=none;endFill=0;strokeColor=#B3B3B3;entryX=0;entryY=1;entryDx=0;entryDy=0;" parent="917" source="918" target="918" edge="1">
                    <mxGeometry relative="1" as="geometry">
                        <mxPoint x="590" y="-99.99999999999994" as="sourcePoint"/>
                        <mxPoint x="590" y="29.230769230769283" as="targetPoint"/>
                    </mxGeometry>
                </mxCell>
                <mxCell id="920" style="edgeStyle=none;html=1;exitX=1;exitY=1;exitDx=0;exitDy=0;endArrow=none;endFill=0;strokeColor=#B3B3B3;entryX=0;entryY=0;entryDx=0;entryDy=0;" parent="917" source="918" target="918" edge="1">
                    <mxGeometry relative="1" as="geometry">
                        <mxPoint x="670" y="-20" as="sourcePoint"/>
                        <mxPoint x="190" y="220" as="targetPoint"/>
                    </mxGeometry>
                </mxCell>
                <mxCell id="921" value="Image" style="text;strokeColor=none;align=center;fillColor=none;html=1;verticalAlign=middle;whiteSpace=wrap;rounded=0;fontColor=#999999;" parent="917" vertex="1">
                    <mxGeometry x="25.059999999999945" y="101" width="60" height="10" as="geometry"/>
                </mxCell>
                <mxCell id="922" value="&lt;font style=&quot;font-size: 9px;&quot;&gt;&lt;b&gt;Nom arbre&lt;/b&gt;&lt;/font&gt;&lt;div&gt;&lt;font style=&quot;font-size: 9px;&quot;&gt;Localisation&lt;/font&gt;&lt;/div&gt;&lt;div&gt;&lt;font style=&quot;font-size: 9px;&quot;&gt;Projet&lt;/font&gt;&lt;/div&gt;&lt;div&gt;&lt;font style=&quot;font-size: 9px;&quot;&gt;Prix&lt;/font&gt;&lt;/div&gt;" style="whiteSpace=wrap;html=1;fontSize=12;align=left;verticalAlign=top;" parent="917" vertex="1">
                    <mxGeometry y="117" width="110" height="96" as="geometry"/>
                </mxCell>
                <mxCell id="923" value="supp" style="whiteSpace=wrap;html=1;fontSize=9;" parent="917" vertex="1">
                    <mxGeometry x="55" y="192" width="43" height="13" as="geometry"/>
                </mxCell>
                <mxCell id="924" value="edit" style="whiteSpace=wrap;html=1;fontSize=9;" parent="917" vertex="1">
                    <mxGeometry x="3" y="192" width="43" height="13" as="geometry"/>
                </mxCell>
                <mxCell id="986" value="" style="whiteSpace=wrap;html=1;" parent="1" vertex="1">
                    <mxGeometry x="405" y="-1246" width="192" height="963" as="geometry"/>
                </mxCell>
                <mxCell id="987" value="" style="whiteSpace=wrap;html=1;" parent="1" vertex="1">
                    <mxGeometry x="405" y="-1246" width="192" height="60" as="geometry"/>
                </mxCell>
                <mxCell id="988" value="" style="group" parent="1" vertex="1" connectable="0">
                    <mxGeometry x="418" y="-1223" width="16" height="11" as="geometry"/>
                </mxCell>
                <mxCell id="989" value="" style="edgeStyle=none;orthogonalLoop=1;jettySize=auto;html=1;endArrow=none;endFill=0;" parent="988" edge="1">
                    <mxGeometry width="80" relative="1" as="geometry">
                        <mxPoint as="sourcePoint"/>
                        <mxPoint x="16" as="targetPoint"/>
                        <Array as="points"/>
                    </mxGeometry>
                </mxCell>
                <mxCell id="990" value="" style="edgeStyle=none;orthogonalLoop=1;jettySize=auto;html=1;endArrow=none;endFill=0;" parent="988" edge="1">
                    <mxGeometry width="80" relative="1" as="geometry">
                        <mxPoint y="5" as="sourcePoint"/>
                        <mxPoint x="16" y="5" as="targetPoint"/>
                        <Array as="points"/>
                    </mxGeometry>
                </mxCell>
                <mxCell id="991" value="" style="edgeStyle=none;orthogonalLoop=1;jettySize=auto;html=1;endArrow=none;endFill=0;" parent="988" edge="1">
                    <mxGeometry width="80" relative="1" as="geometry">
                        <mxPoint y="11" as="sourcePoint"/>
                        <mxPoint x="16" y="11" as="targetPoint"/>
                        <Array as="points"/>
                    </mxGeometry>
                </mxCell>
                <mxCell id="992" value="Logo" style="whiteSpace=wrap;html=1;fillColor=#eeeeee;strokeColor=#36393d;fontSize=9;" parent="1" vertex="1">
                    <mxGeometry x="476" y="-1227.5" width="50" height="20" as="geometry"/>
                </mxCell>
                <mxCell id="993" value="&lt;font style=&quot;font-size: 6px;&quot;&gt;panier&lt;/font&gt;" style="whiteSpace=wrap;html=1;" parent="1" vertex="1">
                    <mxGeometry x="567" y="-1225" width="22" height="15" as="geometry"/>
                </mxCell>
                <mxCell id="994" value="&lt;font style=&quot;font-size: 6px;&quot;&gt;compte&lt;/font&gt;" style="whiteSpace=wrap;html=1;" parent="1" vertex="1">
                    <mxGeometry x="540" y="-1225" width="22" height="15" as="geometry"/>
                </mxCell>
                <mxCell id="1002" value="Afficher plus" style="whiteSpace=wrap;html=1;fillColor=#eeeeee;strokeColor=#36393d;fontSize=9;" parent="1" vertex="1">
                    <mxGeometry x="457" y="-346" width="83" height="20" as="geometry"/>
                </mxCell>
                <mxCell id="1029" value="Copyright" style="whiteSpace=wrap;html=1;fontSize=9;" parent="1" vertex="1">
                    <mxGeometry x="405" y="-284" width="192" height="30" as="geometry"/>
                </mxCell>
                <mxCell id="1000" value="Nos arbres" style="text;strokeColor=none;align=left;fillColor=none;html=1;verticalAlign=middle;whiteSpace=wrap;rounded=0;fontSize=20;" parent="1" vertex="1">
                    <mxGeometry x="417" y="-1171" width="172" height="30" as="geometry"/>
                </mxCell>
                <mxCell id="1030" value="" style="group" parent="1" vertex="1" connectable="0">
                    <mxGeometry x="448" y="-1079" width="110.12" height="213" as="geometry"/>
                </mxCell>
                <mxCell id="1031" value="" style="whiteSpace=wrap;html=1;" parent="1030" vertex="1">
                    <mxGeometry width="110.12" height="117" as="geometry"/>
                </mxCell>
                <mxCell id="1032" style="edgeStyle=none;html=1;exitX=1;exitY=0;exitDx=0;exitDy=0;endArrow=none;endFill=0;strokeColor=#B3B3B3;entryX=0;entryY=1;entryDx=0;entryDy=0;" parent="1030" source="1031" target="1031" edge="1">
                    <mxGeometry relative="1" as="geometry">
                        <mxPoint x="590" y="-99.99999999999994" as="sourcePoint"/>
                        <mxPoint x="590" y="29.230769230769283" as="targetPoint"/>
                    </mxGeometry>
                </mxCell>
                <mxCell id="1033" style="edgeStyle=none;html=1;exitX=1;exitY=1;exitDx=0;exitDy=0;endArrow=none;endFill=0;strokeColor=#B3B3B3;entryX=0;entryY=0;entryDx=0;entryDy=0;" parent="1030" source="1031" target="1031" edge="1">
                    <mxGeometry relative="1" as="geometry">
                        <mxPoint x="670" y="-20" as="sourcePoint"/>
                        <mxPoint x="190" y="220" as="targetPoint"/>
                    </mxGeometry>
                </mxCell>
                <mxCell id="1034" value="Image" style="text;strokeColor=none;align=center;fillColor=none;html=1;verticalAlign=middle;whiteSpace=wrap;rounded=0;fontColor=#999999;" parent="1030" vertex="1">
                    <mxGeometry x="25.059999999999945" y="101" width="60" height="10" as="geometry"/>
                </mxCell>
                <mxCell id="1035" value="&lt;font style=&quot;font-size: 9px;&quot;&gt;&lt;b&gt;Nom arbre&lt;/b&gt;&lt;/font&gt;&lt;div&gt;&lt;font style=&quot;font-size: 9px;&quot;&gt;Localisation&lt;/font&gt;&lt;/div&gt;&lt;div&gt;&lt;font style=&quot;font-size: 9px;&quot;&gt;Projet&lt;/font&gt;&lt;/div&gt;&lt;div&gt;&lt;font style=&quot;font-size: 9px;&quot;&gt;Prix&lt;/font&gt;&lt;/div&gt;" style="whiteSpace=wrap;html=1;fontSize=12;align=left;verticalAlign=top;" parent="1030" vertex="1">
                    <mxGeometry y="117" width="110" height="96" as="geometry"/>
                </mxCell>
                <mxCell id="1036" value="" style="group" parent="1030" vertex="1" connectable="0">
                    <mxGeometry x="3" y="192" width="45" height="13" as="geometry"/>
                </mxCell>
                <mxCell id="1037" value="-" style="whiteSpace=wrap;html=1;fontSize=9;verticalAlign=middle;" parent="1036" vertex="1">
                    <mxGeometry width="15" height="13" as="geometry"/>
                </mxCell>
                <mxCell id="1038" value="1" style="whiteSpace=wrap;html=1;fontSize=9;verticalAlign=middle;" parent="1036" vertex="1">
                    <mxGeometry x="15" width="15" height="13" as="geometry"/>
                </mxCell>
                <mxCell id="1039" value="+" style="whiteSpace=wrap;html=1;fontSize=9;verticalAlign=middle;" parent="1036" vertex="1">
                    <mxGeometry x="30" width="15" height="13" as="geometry"/>
                </mxCell>
                <mxCell id="1040" value="Ajouter" style="whiteSpace=wrap;html=1;fillColor=#eeeeee;strokeColor=#36393d;fontSize=9;" parent="1030" vertex="1">
                    <mxGeometry x="60" y="192" width="43" height="13" as="geometry"/>
                </mxCell>
                <mxCell id="1043" value="" style="group" parent="1" vertex="1" connectable="0">
                    <mxGeometry x="448" y="-840" width="110.12" height="213" as="geometry"/>
                </mxCell>
                <mxCell id="1044" value="" style="whiteSpace=wrap;html=1;" parent="1043" vertex="1">
                    <mxGeometry width="110.12" height="117" as="geometry"/>
                </mxCell>
                <mxCell id="1045" style="edgeStyle=none;html=1;exitX=1;exitY=0;exitDx=0;exitDy=0;endArrow=none;endFill=0;strokeColor=#B3B3B3;entryX=0;entryY=1;entryDx=0;entryDy=0;" parent="1043" source="1044" target="1044" edge="1">
                    <mxGeometry relative="1" as="geometry">
                        <mxPoint x="590" y="-99.99999999999994" as="sourcePoint"/>
                        <mxPoint x="590" y="29.230769230769283" as="targetPoint"/>
                    </mxGeometry>
                </mxCell>
                <mxCell id="1046" style="edgeStyle=none;html=1;exitX=1;exitY=1;exitDx=0;exitDy=0;endArrow=none;endFill=0;strokeColor=#B3B3B3;entryX=0;entryY=0;entryDx=0;entryDy=0;" parent="1043" source="1044" target="1044" edge="1">
                    <mxGeometry relative="1" as="geometry">
                        <mxPoint x="670" y="-20" as="sourcePoint"/>
                        <mxPoint x="190" y="220" as="targetPoint"/>
                    </mxGeometry>
                </mxCell>
                <mxCell id="1047" value="Image" style="text;strokeColor=none;align=center;fillColor=none;html=1;verticalAlign=middle;whiteSpace=wrap;rounded=0;fontColor=#999999;" parent="1043" vertex="1">
                    <mxGeometry x="25.059999999999945" y="101" width="60" height="10" as="geometry"/>
                </mxCell>
                <mxCell id="1048" value="&lt;font style=&quot;font-size: 9px;&quot;&gt;&lt;b&gt;Nom arbre&lt;/b&gt;&lt;/font&gt;&lt;div&gt;&lt;font style=&quot;font-size: 9px;&quot;&gt;Localisation&lt;/font&gt;&lt;/div&gt;&lt;div&gt;&lt;font style=&quot;font-size: 9px;&quot;&gt;Projet&lt;/font&gt;&lt;/div&gt;&lt;div&gt;&lt;font style=&quot;font-size: 9px;&quot;&gt;Prix&lt;/font&gt;&lt;/div&gt;" style="whiteSpace=wrap;html=1;fontSize=12;align=left;verticalAlign=top;" parent="1043" vertex="1">
                    <mxGeometry y="117" width="110" height="96" as="geometry"/>
                </mxCell>
                <mxCell id="1049" value="" style="group" parent="1043" vertex="1" connectable="0">
                    <mxGeometry x="3" y="192" width="45" height="13" as="geometry"/>
                </mxCell>
                <mxCell id="1050" value="-" style="whiteSpace=wrap;html=1;fontSize=9;verticalAlign=middle;" parent="1049" vertex="1">
                    <mxGeometry width="15" height="13" as="geometry"/>
                </mxCell>
                <mxCell id="1051" value="1" style="whiteSpace=wrap;html=1;fontSize=9;verticalAlign=middle;" parent="1049" vertex="1">
                    <mxGeometry x="15" width="15" height="13" as="geometry"/>
                </mxCell>
                <mxCell id="1052" value="+" style="whiteSpace=wrap;html=1;fontSize=9;verticalAlign=middle;" parent="1049" vertex="1">
                    <mxGeometry x="30" width="15" height="13" as="geometry"/>
                </mxCell>
                <mxCell id="1053" value="Ajouter" style="whiteSpace=wrap;html=1;fillColor=#eeeeee;strokeColor=#36393d;fontSize=9;" parent="1043" vertex="1">
                    <mxGeometry x="60" y="192" width="43" height="13" as="geometry"/>
                </mxCell>
                <mxCell id="1055" value="" style="group" parent="1" vertex="1" connectable="0">
                    <mxGeometry x="448" y="-594" width="110.12" height="213" as="geometry"/>
                </mxCell>
                <mxCell id="1056" value="" style="whiteSpace=wrap;html=1;" parent="1055" vertex="1">
                    <mxGeometry width="110.12" height="117" as="geometry"/>
                </mxCell>
                <mxCell id="1057" style="edgeStyle=none;html=1;exitX=1;exitY=0;exitDx=0;exitDy=0;endArrow=none;endFill=0;strokeColor=#B3B3B3;entryX=0;entryY=1;entryDx=0;entryDy=0;" parent="1055" source="1056" target="1056" edge="1">
                    <mxGeometry relative="1" as="geometry">
                        <mxPoint x="590" y="-99.99999999999994" as="sourcePoint"/>
                        <mxPoint x="590" y="29.230769230769283" as="targetPoint"/>
                    </mxGeometry>
                </mxCell>
                <mxCell id="1058" style="edgeStyle=none;html=1;exitX=1;exitY=1;exitDx=0;exitDy=0;endArrow=none;endFill=0;strokeColor=#B3B3B3;entryX=0;entryY=0;entryDx=0;entryDy=0;" parent="1055" source="1056" target="1056" edge="1">
                    <mxGeometry relative="1" as="geometry">
                        <mxPoint x="670" y="-20" as="sourcePoint"/>
                        <mxPoint x="190" y="220" as="targetPoint"/>
                    </mxGeometry>
                </mxCell>
                <mxCell id="1059" value="Image" style="text;strokeColor=none;align=center;fillColor=none;html=1;verticalAlign=middle;whiteSpace=wrap;rounded=0;fontColor=#999999;" parent="1055" vertex="1">
                    <mxGeometry x="25.059999999999945" y="101" width="60" height="10" as="geometry"/>
                </mxCell>
                <mxCell id="1060" value="&lt;font style=&quot;font-size: 9px;&quot;&gt;&lt;b&gt;Nom arbre&lt;/b&gt;&lt;/font&gt;&lt;div&gt;&lt;font style=&quot;font-size: 9px;&quot;&gt;Localisation&lt;/font&gt;&lt;/div&gt;&lt;div&gt;&lt;font style=&quot;font-size: 9px;&quot;&gt;Projet&lt;/font&gt;&lt;/div&gt;&lt;div&gt;&lt;font style=&quot;font-size: 9px;&quot;&gt;Prix&lt;/font&gt;&lt;/div&gt;" style="whiteSpace=wrap;html=1;fontSize=12;align=left;verticalAlign=top;" parent="1055" vertex="1">
                    <mxGeometry y="117" width="110" height="96" as="geometry"/>
                </mxCell>
                <mxCell id="1061" value="" style="group" parent="1055" vertex="1" connectable="0">
                    <mxGeometry x="3" y="192" width="45" height="13" as="geometry"/>
                </mxCell>
                <mxCell id="1062" value="-" style="whiteSpace=wrap;html=1;fontSize=9;verticalAlign=middle;" parent="1061" vertex="1">
                    <mxGeometry width="15" height="13" as="geometry"/>
                </mxCell>
                <mxCell id="1063" value="1" style="whiteSpace=wrap;html=1;fontSize=9;verticalAlign=middle;" parent="1061" vertex="1">
                    <mxGeometry x="15" width="15" height="13" as="geometry"/>
                </mxCell>
                <mxCell id="1064" value="+" style="whiteSpace=wrap;html=1;fontSize=9;verticalAlign=middle;" parent="1061" vertex="1">
                    <mxGeometry x="30" width="15" height="13" as="geometry"/>
                </mxCell>
                <mxCell id="1065" value="Ajouter" style="whiteSpace=wrap;html=1;fillColor=#eeeeee;strokeColor=#36393d;fontSize=9;" parent="1055" vertex="1">
                    <mxGeometry x="60" y="192" width="43" height="13" as="geometry"/>
                </mxCell>
                <mxCell id="1068" value="filtrer par localisation" style="whiteSpace=wrap;html=1;align=left;" parent="1" vertex="1">
                    <mxGeometry x="420" y="-1127" width="128" height="15" as="geometry"/>
                </mxCell>
                <mxCell id="1069" value="" style="whiteSpace=wrap;html=1;" parent="1" vertex="1">
                    <mxGeometry x="759" y="-1249" width="192" height="755" as="geometry"/>
                </mxCell>
                <mxCell id="1070" value="" style="whiteSpace=wrap;html=1;" parent="1" vertex="1">
                    <mxGeometry x="759" y="-1249" width="192" height="60" as="geometry"/>
                </mxCell>
                <mxCell id="1071" value="" style="group" parent="1" vertex="1" connectable="0">
                    <mxGeometry x="772" y="-1226" width="16" height="11" as="geometry"/>
                </mxCell>
                <mxCell id="1072" value="" style="edgeStyle=none;orthogonalLoop=1;jettySize=auto;html=1;endArrow=none;endFill=0;" parent="1071" edge="1">
                    <mxGeometry width="80" relative="1" as="geometry">
                        <mxPoint as="sourcePoint"/>
                        <mxPoint x="16" as="targetPoint"/>
                        <Array as="points"/>
                    </mxGeometry>
                </mxCell>
                <mxCell id="1073" value="" style="edgeStyle=none;orthogonalLoop=1;jettySize=auto;html=1;endArrow=none;endFill=0;" parent="1071" edge="1">
                    <mxGeometry width="80" relative="1" as="geometry">
                        <mxPoint y="5" as="sourcePoint"/>
                        <mxPoint x="16" y="5" as="targetPoint"/>
                        <Array as="points"/>
                    </mxGeometry>
                </mxCell>
                <mxCell id="1074" value="" style="edgeStyle=none;orthogonalLoop=1;jettySize=auto;html=1;endArrow=none;endFill=0;" parent="1071" edge="1">
                    <mxGeometry width="80" relative="1" as="geometry">
                        <mxPoint y="11" as="sourcePoint"/>
                        <mxPoint x="16" y="11" as="targetPoint"/>
                        <Array as="points"/>
                    </mxGeometry>
                </mxCell>
                <mxCell id="1075" value="Logo" style="whiteSpace=wrap;html=1;fillColor=#eeeeee;strokeColor=#36393d;fontSize=9;" parent="1" vertex="1">
                    <mxGeometry x="830" y="-1230.5" width="50" height="20" as="geometry"/>
                </mxCell>
                <mxCell id="1076" value="&lt;font style=&quot;font-size: 6px;&quot;&gt;panier&lt;/font&gt;" style="whiteSpace=wrap;html=1;" parent="1" vertex="1">
                    <mxGeometry x="921" y="-1228" width="22" height="15" as="geometry"/>
                </mxCell>
                <mxCell id="1077" value="&lt;font style=&quot;font-size: 6px;&quot;&gt;compte&lt;/font&gt;" style="whiteSpace=wrap;html=1;" parent="1" vertex="1">
                    <mxGeometry x="894" y="-1228" width="22" height="15" as="geometry"/>
                </mxCell>
                <mxCell id="1079" value="Copyright" style="whiteSpace=wrap;html=1;fontSize=9;" parent="1" vertex="1">
                    <mxGeometry x="759" y="-521" width="192" height="30" as="geometry"/>
                </mxCell>
                <mxCell id="1080" value="Nom arbre" style="text;strokeColor=none;align=left;fillColor=none;html=1;verticalAlign=middle;whiteSpace=wrap;rounded=0;fontSize=20;" parent="1" vertex="1">
                    <mxGeometry x="785" y="-993" width="139" height="30" as="geometry"/>
                </mxCell>
                <mxCell id="1116" value="" style="group" parent="1" vertex="1" connectable="0">
                    <mxGeometry x="785" y="-1167" width="140" height="130" as="geometry"/>
                </mxCell>
                <mxCell id="1117" value="" style="whiteSpace=wrap;html=1;" parent="1116" vertex="1">
                    <mxGeometry y="38" width="140" height="130" as="geometry"/>
                </mxCell>
                <mxCell id="1118" style="edgeStyle=none;html=1;exitX=1;exitY=0;exitDx=0;exitDy=0;endArrow=none;endFill=0;strokeColor=#B3B3B3;entryX=0;entryY=1;entryDx=0;entryDy=0;" parent="1116" source="1117" target="1117" edge="1">
                    <mxGeometry relative="1" as="geometry">
                        <mxPoint x="590" y="-99.99999999999994" as="sourcePoint"/>
                        <mxPoint x="590" y="29.230769230769283" as="targetPoint"/>
                    </mxGeometry>
                </mxCell>
                <mxCell id="1119" style="edgeStyle=none;html=1;exitX=1;exitY=1;exitDx=0;exitDy=0;endArrow=none;endFill=0;strokeColor=#B3B3B3;entryX=0;entryY=0;entryDx=0;entryDy=0;" parent="1116" source="1117" target="1117" edge="1">
                    <mxGeometry relative="1" as="geometry">
                        <mxPoint x="670" y="-20" as="sourcePoint"/>
                        <mxPoint x="190" y="220" as="targetPoint"/>
                    </mxGeometry>
                </mxCell>
                <mxCell id="1121" value="Retour au catalogue" style="text;strokeColor=none;align=left;fillColor=none;html=1;verticalAlign=middle;whiteSpace=wrap;rounded=0;fontStyle=4;fontSize=9;" parent="1116" vertex="1">
                    <mxGeometry width="100" height="30" as="geometry"/>
                </mxCell>
                <mxCell id="1122" value="Localisation" style="text;strokeColor=none;align=left;fillColor=none;html=1;verticalAlign=middle;whiteSpace=wrap;rounded=0;fontSize=9;" parent="1" vertex="1">
                    <mxGeometry x="786" y="-956" width="210" height="10" as="geometry"/>
                </mxCell>
                <mxCell id="1123" value="Description (historique de l&#39;espèce, hauteur, caractéristiques,...)" style="text;strokeColor=none;align=left;fillColor=none;html=1;verticalAlign=middle;whiteSpace=wrap;rounded=0;fontSize=9;" parent="1" vertex="1">
                    <mxGeometry x="786" y="-923" width="145" height="30" as="geometry"/>
                </mxCell>
                <mxCell id="1124" value="Prix" style="text;strokeColor=none;align=left;fillColor=none;html=1;verticalAlign=middle;whiteSpace=wrap;rounded=0;fontSize=9;" parent="1" vertex="1">
                    <mxGeometry x="788" y="-885" width="36" height="10" as="geometry"/>
                </mxCell>
                <mxCell id="1125" value="Ajouter au panier" style="whiteSpace=wrap;html=1;fillColor=#eeeeee;strokeColor=#36393d;fontSize=9;" parent="1" vertex="1">
                    <mxGeometry x="855" y="-864" width="72" height="20" as="geometry"/>
                </mxCell>
                <mxCell id="1126" value="Projet" style="text;strokeColor=none;align=left;fillColor=none;html=1;verticalAlign=middle;whiteSpace=wrap;rounded=0;fontSize=9;" parent="1" vertex="1">
                    <mxGeometry x="788" y="-936" width="210" height="10" as="geometry"/>
                </mxCell>
                <mxCell id="1127" value="" style="group" parent="1" vertex="1" connectable="0">
                    <mxGeometry x="788" y="-864" width="57" height="20" as="geometry"/>
                </mxCell>
                <mxCell id="1128" value="-" style="whiteSpace=wrap;html=1;fontSize=9;" parent="1127" vertex="1">
                    <mxGeometry width="19" height="20" as="geometry"/>
                </mxCell>
                <mxCell id="1129" value="1" style="whiteSpace=wrap;html=1;fontSize=9;" parent="1127" vertex="1">
                    <mxGeometry x="19" width="19" height="20" as="geometry"/>
                </mxCell>
                <mxCell id="1130" value="+" style="whiteSpace=wrap;html=1;fontSize=9;" parent="1127" vertex="1">
                    <mxGeometry x="38" width="19" height="20" as="geometry"/>
                </mxCell>
                <mxCell id="1131" value="Nom projet" style="text;strokeColor=none;align=left;fillColor=none;html=1;verticalAlign=middle;whiteSpace=wrap;rounded=0;fontSize=20;" parent="1" vertex="1">
                    <mxGeometry x="788" y="-658" width="139" height="30" as="geometry"/>
                </mxCell>
                <mxCell id="1132" value="" style="group" parent="1" vertex="1" connectable="0">
                    <mxGeometry x="788" y="-832" width="140" height="161" as="geometry"/>
                </mxCell>
                <mxCell id="1133" value="" style="whiteSpace=wrap;html=1;" parent="1132" vertex="1">
                    <mxGeometry y="38" width="140" height="130" as="geometry"/>
                </mxCell>
                <mxCell id="1134" style="edgeStyle=none;html=1;exitX=1;exitY=0;exitDx=0;exitDy=0;endArrow=none;endFill=0;strokeColor=#B3B3B3;entryX=0;entryY=1;entryDx=0;entryDy=0;" parent="1132" source="1133" target="1133" edge="1">
                    <mxGeometry relative="1" as="geometry">
                        <mxPoint x="590" y="-99.99999999999994" as="sourcePoint"/>
                        <mxPoint x="590" y="29.230769230769283" as="targetPoint"/>
                    </mxGeometry>
                </mxCell>
                <mxCell id="1135" style="edgeStyle=none;html=1;exitX=1;exitY=1;exitDx=0;exitDy=0;endArrow=none;endFill=0;strokeColor=#B3B3B3;entryX=0;entryY=0;entryDx=0;entryDy=0;" parent="1132" source="1133" target="1133" edge="1">
                    <mxGeometry relative="1" as="geometry">
                        <mxPoint x="670" y="-20" as="sourcePoint"/>
                        <mxPoint x="190" y="220" as="targetPoint"/>
                    </mxGeometry>
                </mxCell>
                <mxCell id="1136" value="Image" style="text;strokeColor=none;align=center;fillColor=none;html=1;verticalAlign=middle;whiteSpace=wrap;rounded=0;fontColor=#999999;" parent="1132" vertex="1">
                    <mxGeometry x="40" y="151" width="60" height="10" as="geometry"/>
                </mxCell>
                <mxCell id="1120" value="Image" style="text;strokeColor=none;align=center;fillColor=none;html=1;verticalAlign=middle;whiteSpace=wrap;rounded=0;fontColor=#999999;" parent="1" vertex="1">
                    <mxGeometry x="825" y="-1016" width="60" height="10" as="geometry"/>
                </mxCell>
                <mxCell id="1138" value="Description du projet" style="text;strokeColor=none;align=left;fillColor=none;html=1;verticalAlign=top;whiteSpace=wrap;rounded=0;fontSize=9;" parent="1" vertex="1">
                    <mxGeometry x="785" y="-607" width="145" height="100" as="geometry"/>
                </mxCell>
                <mxCell id="1184" value="" style="whiteSpace=wrap;html=1;" parent="1" vertex="1">
                    <mxGeometry x="1100" y="-1248" width="192" height="373" as="geometry"/>
                </mxCell>
                <mxCell id="1185" value="" style="whiteSpace=wrap;html=1;" parent="1" vertex="1">
                    <mxGeometry x="1100" y="-1248" width="192" height="60" as="geometry"/>
                </mxCell>
                <mxCell id="1186" value="" style="group" parent="1" vertex="1" connectable="0">
                    <mxGeometry x="1113" y="-1225" width="16" height="11" as="geometry"/>
                </mxCell>
                <mxCell id="1187" value="" style="edgeStyle=none;orthogonalLoop=1;jettySize=auto;html=1;endArrow=none;endFill=0;" parent="1186" edge="1">
                    <mxGeometry width="80" relative="1" as="geometry">
                        <mxPoint as="sourcePoint"/>
                        <mxPoint x="16" as="targetPoint"/>
                        <Array as="points"/>
                    </mxGeometry>
                </mxCell>
                <mxCell id="1188" value="" style="edgeStyle=none;orthogonalLoop=1;jettySize=auto;html=1;endArrow=none;endFill=0;" parent="1186" edge="1">
                    <mxGeometry width="80" relative="1" as="geometry">
                        <mxPoint y="5" as="sourcePoint"/>
                        <mxPoint x="16" y="5" as="targetPoint"/>
                        <Array as="points"/>
                    </mxGeometry>
                </mxCell>
                <mxCell id="1189" value="" style="edgeStyle=none;orthogonalLoop=1;jettySize=auto;html=1;endArrow=none;endFill=0;" parent="1186" edge="1">
                    <mxGeometry width="80" relative="1" as="geometry">
                        <mxPoint y="11" as="sourcePoint"/>
                        <mxPoint x="16" y="11" as="targetPoint"/>
                        <Array as="points"/>
                    </mxGeometry>
                </mxCell>
                <mxCell id="1190" value="Logo" style="whiteSpace=wrap;html=1;fillColor=#eeeeee;strokeColor=#36393d;fontSize=9;" parent="1" vertex="1">
                    <mxGeometry x="1171" y="-1229.5" width="50" height="20" as="geometry"/>
                </mxCell>
                <mxCell id="1191" value="&lt;font style=&quot;font-size: 6px;&quot;&gt;panier&lt;/font&gt;" style="whiteSpace=wrap;html=1;" parent="1" vertex="1">
                    <mxGeometry x="1262" y="-1227" width="22" height="15" as="geometry"/>
                </mxCell>
                <mxCell id="1192" value="&lt;font style=&quot;font-size: 6px;&quot;&gt;compte&lt;/font&gt;" style="whiteSpace=wrap;html=1;" parent="1" vertex="1">
                    <mxGeometry x="1235" y="-1227" width="22" height="15" as="geometry"/>
                </mxCell>
                <mxCell id="1193" value="Copyright" style="whiteSpace=wrap;html=1;fontSize=9;" parent="1" vertex="1">
                    <mxGeometry x="1100" y="-878" width="192" height="30" as="geometry"/>
                </mxCell>
                <mxCell id="1194" value="Panier" style="text;strokeColor=none;align=left;fillColor=none;html=1;verticalAlign=middle;whiteSpace=wrap;rounded=0;fontSize=20;" parent="1" vertex="1">
                    <mxGeometry x="1116" y="-1163" width="139" height="30" as="geometry"/>
                </mxCell>
                <mxCell id="1217" value="Produit" style="text;strokeColor=none;align=left;fillColor=none;html=1;verticalAlign=middle;whiteSpace=wrap;rounded=0;fontSize=12;" parent="1" vertex="1">
                    <mxGeometry x="1119" y="-1119" width="45" height="20" as="geometry"/>
                </mxCell>
                <mxCell id="1218" value="Prix" style="text;strokeColor=none;align=right;fillColor=none;html=1;verticalAlign=middle;whiteSpace=wrap;rounded=0;fontSize=12;" parent="1" vertex="1">
                    <mxGeometry x="1231" y="-1119" width="35" height="20" as="geometry"/>
                </mxCell>
                <mxCell id="1229" value="" style="group" parent="1" vertex="1" connectable="0">
                    <mxGeometry x="1115" y="-1094" width="163.5" height="54" as="geometry"/>
                </mxCell>
                <mxCell id="1219" value="" style="group" parent="1229" vertex="1" connectable="0">
                    <mxGeometry y="10" width="50.29" height="44" as="geometry"/>
                </mxCell>
                <mxCell id="1220" value="" style="whiteSpace=wrap;html=1;" parent="1219" vertex="1">
                    <mxGeometry width="50.29" height="44" as="geometry"/>
                </mxCell>
                <mxCell id="1221" style="edgeStyle=none;html=1;exitX=1;exitY=0;exitDx=0;exitDy=0;endArrow=none;endFill=0;strokeColor=#B3B3B3;entryX=0;entryY=1;entryDx=0;entryDy=0;" parent="1219" edge="1">
                    <mxGeometry relative="1" as="geometry">
                        <mxPoint x="50.29" as="sourcePoint"/>
                        <mxPoint y="44" as="targetPoint"/>
                    </mxGeometry>
                </mxCell>
                <mxCell id="1222" style="edgeStyle=none;html=1;exitX=1;exitY=1;exitDx=0;exitDy=0;endArrow=none;endFill=0;strokeColor=#B3B3B3;entryX=0;entryY=0;entryDx=0;entryDy=0;" parent="1219" edge="1">
                    <mxGeometry relative="1" as="geometry">
                        <mxPoint x="50.29" y="44" as="sourcePoint"/>
                        <mxPoint as="targetPoint"/>
                    </mxGeometry>
                </mxCell>
                <mxCell id="1223" value="Image" style="text;strokeColor=none;align=center;fillColor=none;html=1;verticalAlign=middle;whiteSpace=wrap;rounded=0;fontColor=#999999;" parent="1219" vertex="1">
                    <mxGeometry x="10.058" y="34.22222222222222" width="30.174" height="4.888888888888888" as="geometry"/>
                </mxCell>
                <mxCell id="1224" value="Nom arbre" style="text;strokeColor=none;align=left;fillColor=none;html=1;verticalAlign=middle;whiteSpace=wrap;rounded=0;fontSize=8;" parent="1229" vertex="1">
                    <mxGeometry x="56" y="10" width="50" height="20" as="geometry"/>
                </mxCell>
                <mxCell id="1225" value="€ 100,00 EUR" style="text;strokeColor=none;align=right;fillColor=none;html=1;verticalAlign=middle;whiteSpace=wrap;rounded=0;fontSize=8;" parent="1229" vertex="1">
                    <mxGeometry x="103.5" y="10" width="60" height="20" as="geometry"/>
                </mxCell>
                <mxCell id="1226" value="- 1 +" style="text;strokeColor=none;align=left;fillColor=none;html=1;verticalAlign=middle;whiteSpace=wrap;rounded=0;fontSize=9;" parent="1229" vertex="1">
                    <mxGeometry x="82" y="34" width="40" height="20" as="geometry"/>
                </mxCell>
                <mxCell id="1227" value="supp." style="whiteSpace=wrap;html=1;fillColor=#eeeeee;strokeColor=#36393d;fontSize=9;" parent="1229" vertex="1">
                    <mxGeometry x="122" y="34" width="40" height="20" as="geometry"/>
                </mxCell>
                <mxCell id="1228" style="edgeStyle=none;html=1;endArrow=none;endFill=0;strokeColor=#B3B3B3;entryX=0;entryY=1;entryDx=0;entryDy=0;" parent="1229" edge="1">
                    <mxGeometry relative="1" as="geometry">
                        <mxPoint x="157" as="sourcePoint"/>
                        <mxPoint as="targetPoint"/>
                    </mxGeometry>
                </mxCell>
                <mxCell id="1230" value="" style="group" parent="1" vertex="1" connectable="0">
                    <mxGeometry x="1114" y="-1029" width="163.5" height="54" as="geometry"/>
                </mxCell>
                <mxCell id="1231" value="" style="group" parent="1230" vertex="1" connectable="0">
                    <mxGeometry y="10" width="50.29" height="44" as="geometry"/>
                </mxCell>
                <mxCell id="1232" value="" style="whiteSpace=wrap;html=1;" parent="1231" vertex="1">
                    <mxGeometry width="50.29" height="44" as="geometry"/>
                </mxCell>
                <mxCell id="1233" style="edgeStyle=none;html=1;exitX=1;exitY=0;exitDx=0;exitDy=0;endArrow=none;endFill=0;strokeColor=#B3B3B3;entryX=0;entryY=1;entryDx=0;entryDy=0;" parent="1231" edge="1">
                    <mxGeometry relative="1" as="geometry">
                        <mxPoint x="50.29" as="sourcePoint"/>
                        <mxPoint y="44" as="targetPoint"/>
                    </mxGeometry>
                </mxCell>
                <mxCell id="1234" style="edgeStyle=none;html=1;exitX=1;exitY=1;exitDx=0;exitDy=0;endArrow=none;endFill=0;strokeColor=#B3B3B3;entryX=0;entryY=0;entryDx=0;entryDy=0;" parent="1231" edge="1">
                    <mxGeometry relative="1" as="geometry">
                        <mxPoint x="50.29" y="44" as="sourcePoint"/>
                        <mxPoint as="targetPoint"/>
                    </mxGeometry>
                </mxCell>
                <mxCell id="1235" value="Image" style="text;strokeColor=none;align=center;fillColor=none;html=1;verticalAlign=middle;whiteSpace=wrap;rounded=0;fontColor=#999999;" parent="1231" vertex="1">
                    <mxGeometry x="10.058" y="34.22222222222222" width="30.174" height="4.888888888888888" as="geometry"/>
                </mxCell>
                <mxCell id="1236" value="Nom arbre" style="text;strokeColor=none;align=left;fillColor=none;html=1;verticalAlign=middle;whiteSpace=wrap;rounded=0;fontSize=8;" parent="1230" vertex="1">
                    <mxGeometry x="56" y="10" width="50" height="20" as="geometry"/>
                </mxCell>
                <mxCell id="1237" value="€ 100,00 EUR" style="text;strokeColor=none;align=right;fillColor=none;html=1;verticalAlign=middle;whiteSpace=wrap;rounded=0;fontSize=8;" parent="1230" vertex="1">
                    <mxGeometry x="103.5" y="10" width="60" height="20" as="geometry"/>
                </mxCell>
                <mxCell id="1238" value="- 1 +" style="text;strokeColor=none;align=left;fillColor=none;html=1;verticalAlign=middle;whiteSpace=wrap;rounded=0;fontSize=9;" parent="1230" vertex="1">
                    <mxGeometry x="82" y="34" width="40" height="20" as="geometry"/>
                </mxCell>
                <mxCell id="1239" value="supp." style="whiteSpace=wrap;html=1;fillColor=#eeeeee;strokeColor=#36393d;fontSize=9;" parent="1230" vertex="1">
                    <mxGeometry x="122" y="34" width="40" height="20" as="geometry"/>
                </mxCell>
                <mxCell id="1240" style="edgeStyle=none;html=1;endArrow=none;endFill=0;strokeColor=#B3B3B3;entryX=0;entryY=1;entryDx=0;entryDy=0;" parent="1230" edge="1">
                    <mxGeometry relative="1" as="geometry">
                        <mxPoint x="157" as="sourcePoint"/>
                        <mxPoint as="targetPoint"/>
                    </mxGeometry>
                </mxCell>
                <mxCell id="1241" style="edgeStyle=none;html=1;exitX=1;exitY=1;exitDx=0;exitDy=0;endArrow=none;endFill=0;strokeColor=#B3B3B3;" parent="1" edge="1">
                    <mxGeometry relative="1" as="geometry">
                        <mxPoint x="1277.5" y="-956" as="sourcePoint"/>
                        <mxPoint x="1116" y="-956" as="targetPoint"/>
                    </mxGeometry>
                </mxCell>
                <mxCell id="1242" value="€ 250,00 EUR" style="text;strokeColor=none;align=right;fillColor=none;html=1;verticalAlign=middle;whiteSpace=wrap;rounded=0;fontSize=12;" parent="1" vertex="1">
                    <mxGeometry x="1193" y="-940.66" width="85" height="20" as="geometry"/>
                </mxCell>
                <mxCell id="1243" value="Valider le panier" style="whiteSpace=wrap;html=1;fillColor=#eeeeee;strokeColor=#36393d;fontSize=9;" parent="1" vertex="1">
                    <mxGeometry x="1193" y="-909.66" width="83" height="20" as="geometry"/>
                </mxCell>
                <mxCell id="1244" value="TOTAL" style="text;strokeColor=none;align=left;fillColor=none;html=1;verticalAlign=middle;whiteSpace=wrap;rounded=0;fontSize=12;" parent="1" vertex="1">
                    <mxGeometry x="1114" y="-939.66" width="60" height="20" as="geometry"/>
                </mxCell>
                <mxCell id="925" value="" style="whiteSpace=wrap;html=1;" parent="1" vertex="1">
                    <mxGeometry x="64" y="-1245" width="192" height="714" as="geometry"/>
                </mxCell>
                <mxCell id="926" value="" style="whiteSpace=wrap;html=1;" parent="1" vertex="1">
                    <mxGeometry x="64" y="-1245" width="192" height="60" as="geometry"/>
                </mxCell>
                <mxCell id="931" value="" style="group" parent="1" vertex="1" connectable="0">
                    <mxGeometry x="77" y="-1222" width="16" height="11" as="geometry"/>
                </mxCell>
                <mxCell id="928" value="" style="edgeStyle=none;orthogonalLoop=1;jettySize=auto;html=1;endArrow=none;endFill=0;" parent="931" edge="1">
                    <mxGeometry width="80" relative="1" as="geometry">
                        <mxPoint as="sourcePoint"/>
                        <mxPoint x="16" as="targetPoint"/>
                        <Array as="points"/>
                    </mxGeometry>
                </mxCell>
                <mxCell id="929" value="" style="edgeStyle=none;orthogonalLoop=1;jettySize=auto;html=1;endArrow=none;endFill=0;" parent="931" edge="1">
                    <mxGeometry width="80" relative="1" as="geometry">
                        <mxPoint y="5" as="sourcePoint"/>
                        <mxPoint x="16" y="5" as="targetPoint"/>
                        <Array as="points"/>
                    </mxGeometry>
                </mxCell>
                <mxCell id="930" value="" style="edgeStyle=none;orthogonalLoop=1;jettySize=auto;html=1;endArrow=none;endFill=0;" parent="931" edge="1">
                    <mxGeometry width="80" relative="1" as="geometry">
                        <mxPoint y="11" as="sourcePoint"/>
                        <mxPoint x="16" y="11" as="targetPoint"/>
                        <Array as="points"/>
                    </mxGeometry>
                </mxCell>
                <mxCell id="932" value="Logo" style="whiteSpace=wrap;html=1;fillColor=#eeeeee;strokeColor=#36393d;fontSize=9;" parent="1" vertex="1">
                    <mxGeometry x="135" y="-1226.5" width="50" height="20" as="geometry"/>
                </mxCell>
                <mxCell id="933" value="&lt;font style=&quot;font-size: 6px;&quot;&gt;panier&lt;/font&gt;" style="whiteSpace=wrap;html=1;" parent="1" vertex="1">
                    <mxGeometry x="226" y="-1224" width="22" height="15" as="geometry"/>
                </mxCell>
                <mxCell id="934" value="&lt;font style=&quot;font-size: 6px;&quot;&gt;compte&lt;/font&gt;" style="whiteSpace=wrap;html=1;" parent="1" vertex="1">
                    <mxGeometry x="199" y="-1224" width="22" height="15" as="geometry"/>
                </mxCell>
                <mxCell id="954" value="Voir tous nos arbres" style="whiteSpace=wrap;html=1;fillColor=#eeeeee;strokeColor=#36393d;fontSize=9;" parent="1" vertex="1">
                    <mxGeometry x="118.5" y="-575" width="83" height="20" as="geometry"/>
                </mxCell>
                <mxCell id="958" value="&lt;font style=&quot;font-size: 14px;&quot;&gt;Nos arbres autour du monde&lt;/font&gt;" style="text;strokeColor=none;align=left;fillColor=none;html=1;verticalAlign=middle;whiteSpace=wrap;rounded=0;fontSize=16;" parent="1" vertex="1">
                    <mxGeometry x="76" y="-1120" width="174" height="20" as="geometry"/>
                </mxCell>
                <mxCell id="959" value="" style="group" parent="1" vertex="1" connectable="0">
                    <mxGeometry x="119" y="-1073" width="80" height="148" as="geometry"/>
                </mxCell>
                <mxCell id="960" value="" style="group" parent="959" vertex="1" connectable="0">
                    <mxGeometry width="80" height="148" as="geometry"/>
                </mxCell>
                <mxCell id="961" value="" style="whiteSpace=wrap;html=1;" parent="960" vertex="1">
                    <mxGeometry width="80" height="85" as="geometry"/>
                </mxCell>
                <mxCell id="962" style="edgeStyle=none;html=1;exitX=1;exitY=0;exitDx=0;exitDy=0;endArrow=none;endFill=0;strokeColor=#B3B3B3;entryX=0;entryY=1;entryDx=0;entryDy=0;" parent="960" source="961" target="961" edge="1">
                    <mxGeometry relative="1" as="geometry">
                        <mxPoint x="590" y="-99.99999999999994" as="sourcePoint"/>
                        <mxPoint x="590" y="29.230769230769283" as="targetPoint"/>
                    </mxGeometry>
                </mxCell>
                <mxCell id="963" style="edgeStyle=none;html=1;exitX=1;exitY=1;exitDx=0;exitDy=0;endArrow=none;endFill=0;strokeColor=#B3B3B3;entryX=0;entryY=0;entryDx=0;entryDy=0;" parent="960" source="961" target="961" edge="1">
                    <mxGeometry relative="1" as="geometry">
                        <mxPoint x="670" y="-20" as="sourcePoint"/>
                        <mxPoint x="190" y="220" as="targetPoint"/>
                    </mxGeometry>
                </mxCell>
                <mxCell id="965" value="&lt;font style=&quot;font-size: 9px;&quot;&gt;Nom arbre&lt;/font&gt;&lt;div&gt;&lt;font style=&quot;font-size: 9px;&quot;&gt;Localisation&lt;/font&gt;&lt;/div&gt;&lt;div&gt;&lt;font style=&quot;font-size: 9px;&quot;&gt;Projet&lt;/font&gt;&lt;/div&gt;" style="whiteSpace=wrap;html=1;fontSize=12;align=left;verticalAlign=top;" parent="960" vertex="1">
                    <mxGeometry y="85" width="80" height="57" as="geometry"/>
                </mxCell>
                <mxCell id="966" value="Image" style="text;strokeColor=none;align=center;fillColor=none;html=1;verticalAlign=middle;whiteSpace=wrap;rounded=0;fontColor=#999999;" parent="959" vertex="1">
                    <mxGeometry x="10" y="65" width="60" height="10" as="geometry"/>
                </mxCell>
                <mxCell id="968" value="" style="group" parent="1" vertex="1" connectable="0">
                    <mxGeometry x="119" y="-910" width="80" height="148" as="geometry"/>
                </mxCell>
                <mxCell id="969" value="" style="group" parent="968" vertex="1" connectable="0">
                    <mxGeometry width="80" height="148" as="geometry"/>
                </mxCell>
                <mxCell id="970" value="" style="whiteSpace=wrap;html=1;" parent="969" vertex="1">
                    <mxGeometry width="80" height="85" as="geometry"/>
                </mxCell>
                <mxCell id="971" style="edgeStyle=none;html=1;exitX=1;exitY=0;exitDx=0;exitDy=0;endArrow=none;endFill=0;strokeColor=#B3B3B3;entryX=0;entryY=1;entryDx=0;entryDy=0;" parent="969" source="970" target="970" edge="1">
                    <mxGeometry relative="1" as="geometry">
                        <mxPoint x="590" y="-99.99999999999994" as="sourcePoint"/>
                        <mxPoint x="590" y="29.230769230769283" as="targetPoint"/>
                    </mxGeometry>
                </mxCell>
                <mxCell id="972" style="edgeStyle=none;html=1;exitX=1;exitY=1;exitDx=0;exitDy=0;endArrow=none;endFill=0;strokeColor=#B3B3B3;entryX=0;entryY=0;entryDx=0;entryDy=0;" parent="969" source="970" target="970" edge="1">
                    <mxGeometry relative="1" as="geometry">
                        <mxPoint x="670" y="-20" as="sourcePoint"/>
                        <mxPoint x="190" y="220" as="targetPoint"/>
                    </mxGeometry>
                </mxCell>
                <mxCell id="973" value="&lt;font style=&quot;font-size: 9px;&quot;&gt;Nom arbre&lt;/font&gt;&lt;div&gt;&lt;font style=&quot;font-size: 9px;&quot;&gt;Localisation&lt;/font&gt;&lt;/div&gt;&lt;div&gt;&lt;font style=&quot;font-size: 9px;&quot;&gt;Projet&lt;/font&gt;&lt;/div&gt;" style="whiteSpace=wrap;html=1;fontSize=12;align=left;verticalAlign=top;" parent="969" vertex="1">
                    <mxGeometry y="85" width="80" height="57" as="geometry"/>
                </mxCell>
                <mxCell id="974" value="Image" style="text;strokeColor=none;align=center;fillColor=none;html=1;verticalAlign=middle;whiteSpace=wrap;rounded=0;fontColor=#999999;" parent="968" vertex="1">
                    <mxGeometry x="10" y="65" width="60" height="10" as="geometry"/>
                </mxCell>
                <mxCell id="975" value="" style="group" parent="1" vertex="1" connectable="0">
                    <mxGeometry x="118.5" y="-743" width="80" height="148" as="geometry"/>
                </mxCell>
                <mxCell id="976" value="" style="group" parent="975" vertex="1" connectable="0">
                    <mxGeometry width="80" height="148" as="geometry"/>
                </mxCell>
                <mxCell id="977" value="" style="whiteSpace=wrap;html=1;" parent="976" vertex="1">
                    <mxGeometry width="80" height="85" as="geometry"/>
                </mxCell>
                <mxCell id="978" style="edgeStyle=none;html=1;exitX=1;exitY=0;exitDx=0;exitDy=0;endArrow=none;endFill=0;strokeColor=#B3B3B3;entryX=0;entryY=1;entryDx=0;entryDy=0;" parent="976" source="977" target="977" edge="1">
                    <mxGeometry relative="1" as="geometry">
                        <mxPoint x="590" y="-99.99999999999994" as="sourcePoint"/>
                        <mxPoint x="590" y="29.230769230769283" as="targetPoint"/>
                    </mxGeometry>
                </mxCell>
                <mxCell id="979" style="edgeStyle=none;html=1;exitX=1;exitY=1;exitDx=0;exitDy=0;endArrow=none;endFill=0;strokeColor=#B3B3B3;entryX=0;entryY=0;entryDx=0;entryDy=0;" parent="976" source="977" target="977" edge="1">
                    <mxGeometry relative="1" as="geometry">
                        <mxPoint x="670" y="-20" as="sourcePoint"/>
                        <mxPoint x="190" y="220" as="targetPoint"/>
                    </mxGeometry>
                </mxCell>
                <mxCell id="980" value="&lt;font style=&quot;font-size: 9px;&quot;&gt;Nom arbre&lt;/font&gt;&lt;div&gt;&lt;font style=&quot;font-size: 9px;&quot;&gt;Localisation&lt;/font&gt;&lt;/div&gt;&lt;div&gt;&lt;font style=&quot;font-size: 9px;&quot;&gt;Projet&lt;/font&gt;&lt;/div&gt;" style="whiteSpace=wrap;html=1;fontSize=12;align=left;verticalAlign=top;" parent="976" vertex="1">
                    <mxGeometry y="85" width="80" height="57" as="geometry"/>
                </mxCell>
                <mxCell id="981" value="Image" style="text;strokeColor=none;align=center;fillColor=none;html=1;verticalAlign=middle;whiteSpace=wrap;rounded=0;fontColor=#999999;" parent="975" vertex="1">
                    <mxGeometry x="10" y="65" width="60" height="10" as="geometry"/>
                </mxCell>
                <mxCell id="983" value="Copyright" style="whiteSpace=wrap;html=1;fontSize=9;" parent="1" vertex="1">
                    <mxGeometry x="64" y="-531" width="192" height="30" as="geometry"/>
                </mxCell>
                <mxCell id="946" value="Phrase accroche" style="text;strokeColor=none;align=center;fillColor=none;html=1;verticalAlign=middle;whiteSpace=wrap;rounded=0;fontSize=20;" parent="1" vertex="1">
                    <mxGeometry x="55" y="-1164" width="210" height="30" as="geometry"/>
                </mxCell>
                <mxCell id="1255" value="" style="whiteSpace=wrap;html=1;" parent="1" vertex="1">
                    <mxGeometry x="1777" y="-1248" width="192" height="963" as="geometry"/>
                </mxCell>
                <mxCell id="1256" value="" style="whiteSpace=wrap;html=1;" parent="1" vertex="1">
                    <mxGeometry x="1777" y="-1248" width="192" height="60" as="geometry"/>
                </mxCell>
                <mxCell id="1257" value="" style="group" parent="1" vertex="1" connectable="0">
                    <mxGeometry x="1790" y="-1225" width="16" height="11" as="geometry"/>
                </mxCell>
                <mxCell id="1258" value="" style="edgeStyle=none;orthogonalLoop=1;jettySize=auto;html=1;endArrow=none;endFill=0;" parent="1257" edge="1">
                    <mxGeometry width="80" relative="1" as="geometry">
                        <mxPoint as="sourcePoint"/>
                        <mxPoint x="16" as="targetPoint"/>
                        <Array as="points"/>
                    </mxGeometry>
                </mxCell>
                <mxCell id="1259" value="" style="edgeStyle=none;orthogonalLoop=1;jettySize=auto;html=1;endArrow=none;endFill=0;" parent="1257" edge="1">
                    <mxGeometry width="80" relative="1" as="geometry">
                        <mxPoint y="5" as="sourcePoint"/>
                        <mxPoint x="16" y="5" as="targetPoint"/>
                        <Array as="points"/>
                    </mxGeometry>
                </mxCell>
                <mxCell id="1260" value="" style="edgeStyle=none;orthogonalLoop=1;jettySize=auto;html=1;endArrow=none;endFill=0;" parent="1257" edge="1">
                    <mxGeometry width="80" relative="1" as="geometry">
                        <mxPoint y="11" as="sourcePoint"/>
                        <mxPoint x="16" y="11" as="targetPoint"/>
                        <Array as="points"/>
                    </mxGeometry>
                </mxCell>
                <mxCell id="1261" value="Logo" style="whiteSpace=wrap;html=1;fillColor=#eeeeee;strokeColor=#36393d;fontSize=9;" parent="1" vertex="1">
                    <mxGeometry x="1848" y="-1229.5" width="50" height="20" as="geometry"/>
                </mxCell>
                <mxCell id="1262" value="&lt;font style=&quot;font-size: 6px;&quot;&gt;panier&lt;/font&gt;" style="whiteSpace=wrap;html=1;" parent="1" vertex="1">
                    <mxGeometry x="1939" y="-1227" width="22" height="15" as="geometry"/>
                </mxCell>
                <mxCell id="1263" value="&lt;font style=&quot;font-size: 6px;&quot;&gt;compte&lt;/font&gt;" style="whiteSpace=wrap;html=1;" parent="1" vertex="1">
                    <mxGeometry x="1912" y="-1227" width="22" height="15" as="geometry"/>
                </mxCell>
                <mxCell id="1264" value="Afficher plus" style="whiteSpace=wrap;html=1;fillColor=#eeeeee;strokeColor=#36393d;fontSize=9;" parent="1" vertex="1">
                    <mxGeometry x="1829" y="-348" width="83" height="20" as="geometry"/>
                </mxCell>
                <mxCell id="1265" value="Copyright" style="whiteSpace=wrap;html=1;fontSize=9;" parent="1" vertex="1">
                    <mxGeometry x="1777" y="-285" width="192" height="30" as="geometry"/>
                </mxCell>
                <mxCell id="1266" value="Gestion GreenRoots" style="text;strokeColor=none;align=left;fillColor=none;html=1;verticalAlign=middle;whiteSpace=wrap;rounded=0;fontSize=20;" parent="1" vertex="1">
                    <mxGeometry x="1789" y="-1173" width="172" height="47" as="geometry"/>
                </mxCell>
                <mxCell id="1300" value="filtrer par catégorie" style="whiteSpace=wrap;html=1;align=left;" parent="1" vertex="1">
                    <mxGeometry x="1792" y="-1065" width="107" height="15" as="geometry"/>
                </mxCell>
                <mxCell id="1301" value="" style="group" parent="1" vertex="1" connectable="0">
                    <mxGeometry x="1815.44" y="-1019" width="110.12" height="213" as="geometry"/>
                </mxCell>
                <mxCell id="1302" value="" style="whiteSpace=wrap;html=1;" parent="1301" vertex="1">
                    <mxGeometry width="110.12" height="117" as="geometry"/>
                </mxCell>
                <mxCell id="1303" style="edgeStyle=none;html=1;exitX=1;exitY=0;exitDx=0;exitDy=0;endArrow=none;endFill=0;strokeColor=#B3B3B3;entryX=0;entryY=1;entryDx=0;entryDy=0;" parent="1301" source="1302" target="1302" edge="1">
                    <mxGeometry relative="1" as="geometry">
                        <mxPoint x="590" y="-99.99999999999994" as="sourcePoint"/>
                        <mxPoint x="590" y="29.230769230769283" as="targetPoint"/>
                    </mxGeometry>
                </mxCell>
                <mxCell id="1304" style="edgeStyle=none;html=1;exitX=1;exitY=1;exitDx=0;exitDy=0;endArrow=none;endFill=0;strokeColor=#B3B3B3;entryX=0;entryY=0;entryDx=0;entryDy=0;" parent="1301" source="1302" target="1302" edge="1">
                    <mxGeometry relative="1" as="geometry">
                        <mxPoint x="670" y="-20" as="sourcePoint"/>
                        <mxPoint x="190" y="220" as="targetPoint"/>
                    </mxGeometry>
                </mxCell>
                <mxCell id="1305" value="Image" style="text;strokeColor=none;align=center;fillColor=none;html=1;verticalAlign=middle;whiteSpace=wrap;rounded=0;fontColor=#999999;" parent="1301" vertex="1">
                    <mxGeometry x="25.059999999999945" y="101" width="60" height="10" as="geometry"/>
                </mxCell>
                <mxCell id="1306" value="&lt;font style=&quot;font-size: 9px;&quot;&gt;&lt;b&gt;Nom arbre&lt;/b&gt;&lt;/font&gt;&lt;div&gt;&lt;font style=&quot;font-size: 9px;&quot;&gt;Localisation&lt;/font&gt;&lt;/div&gt;&lt;div&gt;&lt;font style=&quot;font-size: 9px;&quot;&gt;Projet&lt;/font&gt;&lt;/div&gt;&lt;div&gt;&lt;font style=&quot;font-size: 9px;&quot;&gt;Prix&lt;/font&gt;&lt;/div&gt;" style="whiteSpace=wrap;html=1;fontSize=12;align=left;verticalAlign=top;" parent="1301" vertex="1">
                    <mxGeometry y="117" width="110" height="96" as="geometry"/>
                </mxCell>
                <mxCell id="1307" value="supp" style="whiteSpace=wrap;html=1;fontSize=9;" parent="1301" vertex="1">
                    <mxGeometry x="55" y="192" width="43" height="13" as="geometry"/>
                </mxCell>
                <mxCell id="1308" value="edit" style="whiteSpace=wrap;html=1;fontSize=9;" parent="1301" vertex="1">
                    <mxGeometry x="3" y="192" width="43" height="13" as="geometry"/>
                </mxCell>
                <mxCell id="1309" value="" style="group" parent="1" vertex="1" connectable="0">
                    <mxGeometry x="1817.94" y="-775" width="110.12" height="213" as="geometry"/>
                </mxCell>
                <mxCell id="1310" value="" style="whiteSpace=wrap;html=1;" parent="1309" vertex="1">
                    <mxGeometry width="110.12" height="117" as="geometry"/>
                </mxCell>
                <mxCell id="1311" style="edgeStyle=none;html=1;exitX=1;exitY=0;exitDx=0;exitDy=0;endArrow=none;endFill=0;strokeColor=#B3B3B3;entryX=0;entryY=1;entryDx=0;entryDy=0;" parent="1309" source="1310" target="1310" edge="1">
                    <mxGeometry relative="1" as="geometry">
                        <mxPoint x="590" y="-99.99999999999994" as="sourcePoint"/>
                        <mxPoint x="590" y="29.230769230769283" as="targetPoint"/>
                    </mxGeometry>
                </mxCell>
                <mxCell id="1312" style="edgeStyle=none;html=1;exitX=1;exitY=1;exitDx=0;exitDy=0;endArrow=none;endFill=0;strokeColor=#B3B3B3;entryX=0;entryY=0;entryDx=0;entryDy=0;" parent="1309" source="1310" target="1310" edge="1">
                    <mxGeometry relative="1" as="geometry">
                        <mxPoint x="670" y="-20" as="sourcePoint"/>
                        <mxPoint x="190" y="220" as="targetPoint"/>
                    </mxGeometry>
                </mxCell>
                <mxCell id="1313" value="Image" style="text;strokeColor=none;align=center;fillColor=none;html=1;verticalAlign=middle;whiteSpace=wrap;rounded=0;fontColor=#999999;" parent="1309" vertex="1">
                    <mxGeometry x="25.059999999999945" y="101" width="60" height="10" as="geometry"/>
                </mxCell>
                <mxCell id="1314" value="&lt;font style=&quot;font-size: 9px;&quot;&gt;&lt;b&gt;Nom arbre&lt;/b&gt;&lt;/font&gt;&lt;div&gt;&lt;font style=&quot;font-size: 9px;&quot;&gt;Localisation&lt;/font&gt;&lt;/div&gt;&lt;div&gt;&lt;font style=&quot;font-size: 9px;&quot;&gt;Projet&lt;/font&gt;&lt;/div&gt;&lt;div&gt;&lt;font style=&quot;font-size: 9px;&quot;&gt;Prix&lt;/font&gt;&lt;/div&gt;" style="whiteSpace=wrap;html=1;fontSize=12;align=left;verticalAlign=top;" parent="1309" vertex="1">
                    <mxGeometry y="117" width="110" height="96" as="geometry"/>
                </mxCell>
                <mxCell id="1315" value="supp" style="whiteSpace=wrap;html=1;fontSize=9;" parent="1309" vertex="1">
                    <mxGeometry x="55" y="192" width="43" height="13" as="geometry"/>
                </mxCell>
                <mxCell id="1316" value="edit" style="whiteSpace=wrap;html=1;fontSize=9;" parent="1309" vertex="1">
                    <mxGeometry x="3" y="192" width="43" height="13" as="geometry"/>
                </mxCell>
                <mxCell id="1318" value="" style="group" parent="1" vertex="1" connectable="0">
                    <mxGeometry x="1818" y="-533" width="110.12" height="213" as="geometry"/>
                </mxCell>
                <mxCell id="1319" value="" style="whiteSpace=wrap;html=1;" parent="1318" vertex="1">
                    <mxGeometry width="110.12" height="117" as="geometry"/>
                </mxCell>
                <mxCell id="1320" style="edgeStyle=none;html=1;exitX=1;exitY=0;exitDx=0;exitDy=0;endArrow=none;endFill=0;strokeColor=#B3B3B3;entryX=0;entryY=1;entryDx=0;entryDy=0;" parent="1318" source="1319" target="1319" edge="1">
                    <mxGeometry relative="1" as="geometry">
                        <mxPoint x="590" y="-99.99999999999994" as="sourcePoint"/>
                        <mxPoint x="590" y="29.230769230769283" as="targetPoint"/>
                    </mxGeometry>
                </mxCell>
                <mxCell id="1321" style="edgeStyle=none;html=1;exitX=1;exitY=1;exitDx=0;exitDy=0;endArrow=none;endFill=0;strokeColor=#B3B3B3;entryX=0;entryY=0;entryDx=0;entryDy=0;" parent="1318" source="1319" target="1319" edge="1">
                    <mxGeometry relative="1" as="geometry">
                        <mxPoint x="670" y="-20" as="sourcePoint"/>
                        <mxPoint x="190" y="220" as="targetPoint"/>
                    </mxGeometry>
                </mxCell>
                <mxCell id="1322" value="Image" style="text;strokeColor=none;align=center;fillColor=none;html=1;verticalAlign=middle;whiteSpace=wrap;rounded=0;fontColor=#999999;" parent="1318" vertex="1">
                    <mxGeometry x="25.059999999999945" y="101" width="60" height="10" as="geometry"/>
                </mxCell>
                <mxCell id="1323" value="&lt;font style=&quot;font-size: 9px;&quot;&gt;&lt;b&gt;Nom arbre&lt;/b&gt;&lt;/font&gt;&lt;div&gt;&lt;font style=&quot;font-size: 9px;&quot;&gt;Localisation&lt;/font&gt;&lt;/div&gt;&lt;div&gt;&lt;font style=&quot;font-size: 9px;&quot;&gt;Projet&lt;/font&gt;&lt;/div&gt;&lt;div&gt;&lt;font style=&quot;font-size: 9px;&quot;&gt;Prix&lt;/font&gt;&lt;/div&gt;" style="whiteSpace=wrap;html=1;fontSize=12;align=left;verticalAlign=top;" parent="1318" vertex="1">
                    <mxGeometry y="117" width="110" height="96" as="geometry"/>
                </mxCell>
                <mxCell id="1324" value="supp" style="whiteSpace=wrap;html=1;fontSize=9;" parent="1318" vertex="1">
                    <mxGeometry x="55" y="192" width="43" height="13" as="geometry"/>
                </mxCell>
                <mxCell id="1325" value="edit" style="whiteSpace=wrap;html=1;fontSize=9;" parent="1318" vertex="1">
                    <mxGeometry x="3" y="192" width="43" height="13" as="geometry"/>
                </mxCell>
                <mxCell id="1361" value="" style="group;rotation=90;" parent="1" vertex="1" connectable="0">
                    <mxGeometry x="2144.62" y="-1113" width="131.76" height="160" as="geometry"/>
                </mxCell>
                <mxCell id="1362" value="" style="whiteSpace=wrap;html=1;" parent="1361" vertex="1">
                    <mxGeometry width="131.76" height="140" as="geometry"/>
                </mxCell>
                <mxCell id="1363" style="edgeStyle=none;html=1;exitX=1;exitY=0;exitDx=0;exitDy=0;endArrow=none;endFill=0;strokeColor=#B3B3B3;entryX=0;entryY=1;entryDx=0;entryDy=0;" parent="1361" source="1362" target="1362" edge="1">
                    <mxGeometry relative="1" as="geometry">
                        <mxPoint x="590" y="-99.99999999999994" as="sourcePoint"/>
                        <mxPoint x="590" y="29.230769230769283" as="targetPoint"/>
                    </mxGeometry>
                </mxCell>
                <mxCell id="1364" style="edgeStyle=none;html=1;exitX=1;exitY=1;exitDx=0;exitDy=0;endArrow=none;endFill=0;strokeColor=#B3B3B3;entryX=0;entryY=0;entryDx=0;entryDy=0;" parent="1361" source="1362" target="1362" edge="1">
                    <mxGeometry relative="1" as="geometry">
                        <mxPoint x="670" y="-20" as="sourcePoint"/>
                        <mxPoint x="190" y="220" as="targetPoint"/>
                    </mxGeometry>
                </mxCell>
                <mxCell id="1365" value="Image" style="text;strokeColor=none;align=center;fillColor=none;html=1;verticalAlign=middle;whiteSpace=wrap;rounded=0;fontColor=#999999;" parent="1361" vertex="1">
                    <mxGeometry x="35.879999999999995" y="120" width="60" height="10" as="geometry"/>
                </mxCell>
                <mxCell id="1366" value="Choisir une image..." style="whiteSpace=wrap;html=1;fillColor=#eeeeee;strokeColor=#36393d;fontSize=9;" parent="1361" vertex="1">
                    <mxGeometry x="25.88" y="60" width="84.12" height="20" as="geometry"/>
                </mxCell>
                <mxCell id="1367" value="Nom arbre" style="text;strokeColor=none;align=left;fillColor=none;html=1;verticalAlign=middle;whiteSpace=wrap;rounded=0;fontSize=9;" parent="1" vertex="1">
                    <mxGeometry x="2144.62" y="-943" width="50" height="20" as="geometry"/>
                </mxCell>
                <mxCell id="1368" value="" style="whiteSpace=wrap;html=1;" parent="1" vertex="1">
                    <mxGeometry x="2144.62" y="-923" width="129.38" height="20" as="geometry"/>
                </mxCell>
                <mxCell id="1369" value="Sélectionner une localisation" style="whiteSpace=wrap;html=1;align=left;fontSize=9;" parent="1" vertex="1">
                    <mxGeometry x="2144.62" y="-883" width="128.38" height="20" as="geometry"/>
                </mxCell>
                <mxCell id="1370" value="Sélectionner un projet" style="whiteSpace=wrap;html=1;align=left;fontSize=9;" parent="1" vertex="1">
                    <mxGeometry x="2144.62" y="-843" width="128.38" height="20" as="geometry"/>
                </mxCell>
                <mxCell id="1371" value="Prix" style="text;strokeColor=none;align=left;fillColor=none;html=1;verticalAlign=middle;whiteSpace=wrap;rounded=0;fontSize=9;" parent="1" vertex="1">
                    <mxGeometry x="2144.62" y="-823" width="50" height="20" as="geometry"/>
                </mxCell>
                <mxCell id="1372" value="" style="whiteSpace=wrap;html=1;" parent="1" vertex="1">
                    <mxGeometry x="2144.62" y="-803" width="127.38" height="20" as="geometry"/>
                </mxCell>
                <mxCell id="1373" value="Sauvegarder" style="whiteSpace=wrap;html=1;fillColor=#eeeeee;strokeColor=#36393d;fontSize=9;" parent="1" vertex="1">
                    <mxGeometry x="2192" y="-761.5" width="80" height="20" as="geometry"/>
                </mxCell>
                <mxCell id="1375" value="" style="whiteSpace=wrap;html=1;" parent="1" vertex="1">
                    <mxGeometry x="2117" y="-1248" width="192" height="60" as="geometry"/>
                </mxCell>
                <mxCell id="1376" value="" style="group" parent="1" vertex="1" connectable="0">
                    <mxGeometry x="2130" y="-1225" width="16" height="11" as="geometry"/>
                </mxCell>
                <mxCell id="1377" value="" style="edgeStyle=none;orthogonalLoop=1;jettySize=auto;html=1;endArrow=none;endFill=0;" parent="1376" edge="1">
                    <mxGeometry width="80" relative="1" as="geometry">
                        <mxPoint as="sourcePoint"/>
                        <mxPoint x="16" as="targetPoint"/>
                        <Array as="points"/>
                    </mxGeometry>
                </mxCell>
                <mxCell id="1378" value="" style="edgeStyle=none;orthogonalLoop=1;jettySize=auto;html=1;endArrow=none;endFill=0;" parent="1376" edge="1">
                    <mxGeometry width="80" relative="1" as="geometry">
                        <mxPoint y="5" as="sourcePoint"/>
                        <mxPoint x="16" y="5" as="targetPoint"/>
                        <Array as="points"/>
                    </mxGeometry>
                </mxCell>
                <mxCell id="1379" value="" style="edgeStyle=none;orthogonalLoop=1;jettySize=auto;html=1;endArrow=none;endFill=0;" parent="1376" edge="1">
                    <mxGeometry width="80" relative="1" as="geometry">
                        <mxPoint y="11" as="sourcePoint"/>
                        <mxPoint x="16" y="11" as="targetPoint"/>
                        <Array as="points"/>
                    </mxGeometry>
                </mxCell>
                <mxCell id="1380" value="Logo" style="whiteSpace=wrap;html=1;fillColor=#eeeeee;strokeColor=#36393d;fontSize=9;" parent="1" vertex="1">
                    <mxGeometry x="2188" y="-1229.5" width="50" height="20" as="geometry"/>
                </mxCell>
                <mxCell id="1381" value="&lt;font style=&quot;font-size: 6px;&quot;&gt;panier&lt;/font&gt;" style="whiteSpace=wrap;html=1;" parent="1" vertex="1">
                    <mxGeometry x="2279" y="-1227" width="22" height="15" as="geometry"/>
                </mxCell>
                <mxCell id="1382" value="&lt;font style=&quot;font-size: 6px;&quot;&gt;compte&lt;/font&gt;" style="whiteSpace=wrap;html=1;" parent="1" vertex="1">
                    <mxGeometry x="2252" y="-1227" width="22" height="15" as="geometry"/>
                </mxCell>
                <mxCell id="1384" value="Copyright" style="whiteSpace=wrap;html=1;fontSize=9;" parent="1" vertex="1">
                    <mxGeometry x="2117" y="-715" width="192" height="30" as="geometry"/>
                </mxCell>
                <mxCell id="1385" value="Ajout / modifier&lt;div&gt;un arbre&lt;/div&gt;" style="text;strokeColor=none;align=left;fillColor=none;html=1;verticalAlign=middle;whiteSpace=wrap;rounded=0;fontSize=20;" parent="1" vertex="1">
                    <mxGeometry x="2129" y="-1173" width="172" height="47" as="geometry"/>
                </mxCell>
                <mxCell id="1411" value="Ajouter un arbre" style="whiteSpace=wrap;html=1;fillColor=#eeeeee;strokeColor=#36393d;fontSize=9;" parent="1" vertex="1">
                    <mxGeometry x="1875.5" y="-1105" width="80" height="20" as="geometry"/>
                </mxCell>
                <mxCell id="1412" value="Créer un projet" style="whiteSpace=wrap;html=1;fillColor=#eeeeee;strokeColor=#36393d;fontSize=9;" parent="1" vertex="1">
                    <mxGeometry x="1785.5" y="-1105" width="80" height="20" as="geometry"/>
                </mxCell>
                <mxCell id="1415" value="Utilisateur" style="text;strokeColor=none;align=center;fillColor=none;html=1;verticalAlign=middle;whiteSpace=wrap;rounded=0;fontColor=#00FF00;fontSize=28;" parent="1" vertex="1">
                    <mxGeometry y="-1371" width="135" height="43" as="geometry"/>
                </mxCell>
                <mxCell id="1421" value="Admin" style="text;strokeColor=none;align=center;fillColor=none;html=1;verticalAlign=middle;whiteSpace=wrap;rounded=0;fontColor=#FF3333;fontSize=28;" parent="1" vertex="1">
                    <mxGeometry x="620" y="886" width="135" height="43" as="geometry"/>
                </mxCell>
                <mxCell id="54" value="Copyright" style="whiteSpace=wrap;html=1;fontSize=9;" parent="1" vertex="1">
                    <mxGeometry x="700" y="721" width="480" height="30" as="geometry"/>
                </mxCell>
                <mxCell id="435" value="Copyright" style="whiteSpace=wrap;html=1;fontSize=9;" parent="1" vertex="1">
                    <mxGeometry x="2140" y="490" width="480" height="30" as="geometry"/>
                </mxCell>
                <mxCell id="1423" value="Accueil" style="whiteSpace=wrap;html=1;" vertex="1" parent="1">
                    <mxGeometry x="290" y="-1572" width="106" height="25" as="geometry"/>
                </mxCell>
                <mxCell id="1424" value="Catalogue" style="whiteSpace=wrap;html=1;" vertex="1" parent="1">
                    <mxGeometry x="290" y="-1547" width="106" height="25" as="geometry"/>
                </mxCell>
                <mxCell id="1425" value="A propos / contact" style="whiteSpace=wrap;html=1;" vertex="1" parent="1">
                    <mxGeometry x="290" y="-1522" width="106" height="25" as="geometry"/>
                </mxCell>
                <mxCell id="1427" value="" style="edgeStyle=none;orthogonalLoop=1;jettySize=auto;html=1;exitX=0.5;exitY=1;exitDx=0;exitDy=0;" edge="1" parent="1" source="1426">
                    <mxGeometry width="80" relative="1" as="geometry">
                        <mxPoint x="212" y="-1506" as="sourcePoint"/>
                        <mxPoint x="96" y="-1222" as="targetPoint"/>
                        <Array as="points"/>
                    </mxGeometry>
                </mxCell>
                <mxCell id="1428" value="Menu burger" style="text;strokeColor=none;align=left;fillColor=none;html=1;verticalAlign=middle;whiteSpace=wrap;rounded=0;fontColor=#CC6600;" vertex="1" parent="1">
                    <mxGeometry x="231" y="-1629" width="123" height="30" as="geometry"/>
                </mxCell>
                <mxCell id="1429" value="Catalogue" style="whiteSpace=wrap;html=1;" vertex="1" parent="1">
                    <mxGeometry x="231" y="50" width="66" height="15" as="geometry"/>
                </mxCell>
                <mxCell id="1430" value="A propos / contact" style="whiteSpace=wrap;html=1;" vertex="1" parent="1">
                    <mxGeometry x="308" y="50" width="102" height="15" as="geometry"/>
                </mxCell>
                <mxCell id="1431" value="Accueil" style="whiteSpace=wrap;html=1;" vertex="1" parent="1">
                    <mxGeometry x="831" y="50" width="47" height="15" as="geometry"/>
                </mxCell>
                <mxCell id="1432" value="Catalogue" style="whiteSpace=wrap;html=1;" vertex="1" parent="1">
                    <mxGeometry x="891" y="50" width="66" height="15" as="geometry"/>
                </mxCell>
                <mxCell id="1433" value="A propos / contact" style="whiteSpace=wrap;html=1;" vertex="1" parent="1">
                    <mxGeometry x="968" y="50" width="102" height="15" as="geometry"/>
                </mxCell>
                <mxCell id="1434" value="Accueil" style="whiteSpace=wrap;html=1;" vertex="1" parent="1">
                    <mxGeometry x="1529" y="50" width="47" height="15" as="geometry"/>
                </mxCell>
                <mxCell id="1435" value="Catalogue" style="whiteSpace=wrap;html=1;" vertex="1" parent="1">
                    <mxGeometry x="1589" y="50" width="66" height="15" as="geometry"/>
                </mxCell>
                <mxCell id="1436" value="A propos / contact" style="whiteSpace=wrap;html=1;" vertex="1" parent="1">
                    <mxGeometry x="1666" y="50" width="102" height="15" as="geometry"/>
                </mxCell>
                <mxCell id="1437" value="Accueil" style="whiteSpace=wrap;html=1;" vertex="1" parent="1">
                    <mxGeometry x="820.5" y="970" width="47" height="15" as="geometry"/>
                </mxCell>
                <mxCell id="1438" value="Catalogue" style="whiteSpace=wrap;html=1;" vertex="1" parent="1">
                    <mxGeometry x="880.5" y="970" width="66" height="15" as="geometry"/>
                </mxCell>
                <mxCell id="1439" value="A propos / contact" style="whiteSpace=wrap;html=1;" vertex="1" parent="1">
                    <mxGeometry x="957.5" y="970" width="102" height="15" as="geometry"/>
                </mxCell>
                <mxCell id="1440" value="Accueil" style="whiteSpace=wrap;html=1;" vertex="1" parent="1">
                    <mxGeometry x="1570" y="970" width="47" height="15" as="geometry"/>
                </mxCell>
                <mxCell id="1441" value="Catalogue" style="whiteSpace=wrap;html=1;" vertex="1" parent="1">
                    <mxGeometry x="1630" y="970" width="66" height="15" as="geometry"/>
                </mxCell>
                <mxCell id="1442" value="A propos / contact" style="whiteSpace=wrap;html=1;" vertex="1" parent="1">
                    <mxGeometry x="1707" y="970" width="102" height="15" as="geometry"/>
                </mxCell>
                <mxCell id="1420" value="" style="whiteSpace=wrap;html=1;strokeWidth=3;fillColor=none;strokeColor=#FF3333;" parent="1" vertex="1">
                    <mxGeometry x="593" y="926" width="1369" height="803" as="geometry"/>
                </mxCell>
                <mxCell id="1443" value="" style="whiteSpace=wrap;html=1;fillColor=#ffe6cc;strokeColor=#d79b00;" vertex="1" parent="1">
                    <mxGeometry x="-435" y="-304" width="232" height="153" as="geometry"/>
                </mxCell>
                <mxCell id="1444" value="Afrique" style="whiteSpace=wrap;html=1;" vertex="1" parent="1">
                    <mxGeometry x="-376" y="-289" width="106" height="25" as="geometry"/>
                </mxCell>
                <mxCell id="1445" value="Amérique" style="whiteSpace=wrap;html=1;" vertex="1" parent="1">
                    <mxGeometry x="-376" y="-264" width="106" height="25" as="geometry"/>
                </mxCell>
                <mxCell id="1446" value="Asie" style="whiteSpace=wrap;html=1;" vertex="1" parent="1">
                    <mxGeometry x="-376" y="-239" width="106" height="25" as="geometry"/>
                </mxCell>
                <mxCell id="1447" value="" style="edgeStyle=none;orthogonalLoop=1;jettySize=auto;html=1;exitX=0.5;exitY=1;exitDx=0;exitDy=0;entryX=0.5;entryY=0;entryDx=0;entryDy=0;" edge="1" parent="1" source="1443" target="1429">
                    <mxGeometry width="80" relative="1" as="geometry">
                        <mxPoint x="-454" y="-90" as="sourcePoint"/>
                        <mxPoint x="-570" y="194" as="targetPoint"/>
                        <Array as="points"/>
                    </mxGeometry>
                </mxCell>
                <mxCell id="1448" value="Sous-menus" style="text;strokeColor=none;align=left;fillColor=none;html=1;verticalAlign=middle;whiteSpace=wrap;rounded=0;fontColor=#CC6600;" vertex="1" parent="1">
                    <mxGeometry x="-435" y="-334" width="123" height="30" as="geometry"/>
                </mxCell>
                <mxCell id="1449" value="Europe" style="whiteSpace=wrap;html=1;" vertex="1" parent="1">
                    <mxGeometry x="-376" y="-214" width="106" height="25" as="geometry"/>
                </mxCell>
                <mxCell id="1450" value="Océanie" style="whiteSpace=wrap;html=1;" vertex="1" parent="1">
                    <mxGeometry x="-376" y="-189" width="106" height="25" as="geometry"/>
                </mxCell>
            </root>
        </mxGraphModel>
    </diagram>
</mxfile>